<?xml version="1.0" encoding="UTF-8"?>
<svg width="22px" height="44px" viewBox="0 0 22 44" version="1.1" xmlns="http://www.w3.org/2000/svg" xmlns:xlink="http://www.w3.org/1999/xlink">
    <title>david energy logo mark</title>
    <g id="david-energy-logo-mark" stroke="none" stroke-width="1" fill="none" fill-rule="evenodd">
        <path d="M19.8346271,18.372462 L19.6431487,18.372462 L19.6431487,11.4319601 C19.6431487,10.8253285 19.1454381,10.3312813 18.5343082,10.3312813 L16.5494704,10.3312813 L16.5494704,4.37821159 C16.5494704,3.77157995 16.0524269,3.27753277 15.4406299,3.27753277 L15.3298793,3.27753277 L15.3298793,1.57816945 C15.3298793,1.1424013 14.9742764,0.789415855 14.5346098,0.789415855 C14.0956104,0.789415855 13.7400075,1.1424013 13.7400075,1.57816945 L13.7400075,3.27753277 L13.0674977,3.27753277 L13.0674977,0.789415855 C13.0674977,0.353647707 12.7118948,1.77635684e-14 12.2728954,1.77635684e-14 C11.833896,1.77635684e-14 11.4782931,0.353647707 11.4782931,0.789415855 L11.4782931,3.28018182 L11.3361854,3.28018182 C10.7250555,3.28018182 10.2273449,3.77422899 10.2273449,4.38086064 L10.2273449,18.372462 L8.36259812,18.372462 L8.36259812,11.4319601 C8.36259812,10.8253285 7.8655547,10.3312813 7.25375763,10.3312813 L3.16265661,10.3312813 C2.55152671,10.3312813 2.05448329,10.8253285 2.05448329,11.4319601 L2.05448329,18.372462 L1.73490772,18.372462 C1.26521837,18.372462 0.826218942,18.5545839 0.497970133,18.8857147 C0.169721323,19.2168455 -0.00774652941,19.6552627 0.000259539117,20.1188459 L0.0643080873,24.6566625 C0.0669767768,24.8222279 0.123019257,24.984482 0.223095113,25.1175966 L6.15092169,32.9958609 L6.15092169,37.1389696 C6.15092169,38.0879905 6.92884468,38.8608498 7.88490269,38.8608498 L8.19580502,38.8608498 L8.19580502,43.2105841 C8.19580502,43.6470146 8.5514079,44 8.9910745,44 C9.43007392,44 9.7856768,43.6470146 9.7856768,43.2105841 L9.7856768,38.8608498 L11.6584297,38.8608498 L11.6584297,43.2105841 C11.6584297,43.6470146 12.0146997,44 12.4536991,44 C12.8926986,44 13.2483014,43.6470146 13.2483014,43.2105841 L13.2483014,38.8608498 L13.6372629,38.8608498 C14.5879836,38.8608498 15.3659066,38.0939508 15.3712439,37.150228 L15.3965965,33.003808 L21.4158257,25.0646157 C21.5185702,24.9268652 21.5739455,24.7612998 21.5739455,24.5904363 L21.5739455,20.0936799 C21.5712768,19.1453213 20.7933539,18.372462 19.8346271,18.372462 L19.8346271,18.372462 Z M15.7575367,11.9061395 L18.0586143,11.9061395 L18.0586143,18.2949773 L11.8225541,18.2949773 L11.8225541,4.85570222 L14.9629344,4.85570222 L14.9629344,11.1173859 C14.9629344,11.553154 15.3185373,11.9061395 15.7575367,11.9061395 L15.7575367,11.9061395 Z M3.6410192,18.2949773 L6.78139958,18.2949773 L6.78139958,11.9061395 L3.6410192,11.9061395 L3.6410192,18.2949773 Z M19.9820722,24.3308298 L13.9655117,32.2673731 C13.8627672,32.4024745 13.8067247,32.5680399 13.8067247,32.7362543 L13.7793706,37.1449299 C13.7793706,37.2244013 13.7119862,37.2912898 13.6319256,37.2912898 L7.88490269,37.2912898 C7.80417484,37.2912898 7.7374576,37.2244013 7.7374576,37.1449299 L7.7374576,32.7395656 C7.7374576,32.5680399 7.68208229,32.4051235 7.57867057,32.2673731 L1.64817531,24.3804994 L1.58746262,20.0969912 C1.58746262,20.0473216 1.60947931,20.0108972 1.62882731,19.9916916 C1.64817531,19.972486 1.6822011,19.9473201 1.73490772,19.9473201 L19.8346271,19.9473201 C19.915355,19.9473201 19.9820722,20.0142085 19.9820722,20.0936799 L19.9820722,24.3308298 Z" id="Combined-Shape" fill="#575E68"></path>
    </g>
</svg>
