
<?xml version="1.0" encoding="UTF-8"?>
<svg width="150px" height="44px" viewBox="0 0 150 44" version="1.1" xmlns="http://www.w3.org/2000/svg" xmlns:xlink="http://www.w3.org/1999/xlink">
    <title>david energy logo</title>
    <g id="david-energy-logo" stroke="none" stroke-width="1" fill="none" fill-rule="evenodd">
        <path d="M12.2728954,1.77635684e-14 C12.7118948,1.77635684e-14 13.0674977,0.353647707 13.0674977,0.789415855 L13.0674977,0.789415855 L13.0674977,3.27753277 L13.7400075,3.27753277 L13.7400075,1.57816945 C13.7400075,1.1424013 14.0956104,0.789415855 14.5346098,0.789415855 C14.9742764,0.789415855 15.3298793,1.1424013 15.3298793,1.57816945 L15.3298793,1.57816945 L15.3298793,3.27753277 L15.4406299,3.27753277 C16.0524269,3.27753277 16.5494704,3.77157995 16.5494704,4.37821159 L16.5494704,4.37821159 L16.5494704,10.3312813 L18.5343082,10.3312813 C19.1454381,10.3312813 19.6431487,10.8253285 19.6431487,11.4319601 L19.6431487,11.4319601 L19.6431487,18.372462 L19.8346271,18.372462 C20.7933539,18.372462 21.5712768,19.1453213 21.5739455,20.0936799 L21.5739455,20.0936799 L21.5739455,24.5904363 C21.5739455,24.7612998 21.5185702,24.9268652 21.4158257,25.0646157 L21.4158257,25.0646157 L15.3965965,33.003808 L15.3712439,37.150228 C15.3659066,38.0939508 14.5879836,38.8608498 13.6372629,38.8608498 L13.6372629,38.8608498 L13.2483014,38.8608498 L13.2483014,43.2105841 C13.2483014,43.6470146 12.8926986,44 12.4536991,44 C12.0146997,44 11.6584297,43.6470146 11.6584297,43.2105841 L11.6584297,43.2105841 L11.6584297,38.8608498 L9.7856768,38.8608498 L9.7856768,43.2105841 C9.7856768,43.6470146 9.43007392,44 8.9910745,44 C8.5514079,44 8.19580502,43.6470146 8.19580502,43.2105841 L8.19580502,43.2105841 L8.19580502,38.8608498 L7.88490269,38.8608498 C6.92884468,38.8608498 6.15092169,38.0879905 6.15092169,37.1389696 L6.15092169,37.1389696 L6.15092169,32.9958609 L0.223095113,25.1175966 C0.123019257,24.984482 0.0669767768,24.8222279 0.0643080873,24.6566625 L0.0643080873,24.6566625 L0.000259539117,20.1188459 C-0.00774652941,19.6552627 0.169721323,19.2168455 0.497970133,18.8857147 C0.826218942,18.5545839 1.26521837,18.372462 1.73490772,18.372462 L1.73490772,18.372462 L2.05448329,18.372462 L2.05448329,11.4319601 C2.05448329,10.8253285 2.55152671,10.3312813 3.16265661,10.3312813 L3.16265661,10.3312813 L7.25375763,10.3312813 C7.8655547,10.3312813 8.36259812,10.8253285 8.36259812,11.4319601 L8.36259812,11.4319601 L8.36259812,18.372462 L10.2273449,18.372462 L10.2273449,4.38086064 C10.2273449,3.77422899 10.7250555,3.28018182 11.3361854,3.28018182 L11.3361854,3.28018182 L11.4782931,3.28018182 L11.4782931,0.789415855 C11.4782931,0.353647707 11.833896,1.77635684e-14 12.2728954,1.77635684e-14 Z M19.8346271,19.9473201 L1.73490772,19.9473201 C1.6822011,19.9473201 1.64817531,19.972486 1.62882731,19.9916916 C1.60947931,20.0108972 1.58746262,20.0473216 1.58746262,20.0969912 L1.58746262,20.0969912 L1.64817531,24.3804994 L7.57867057,32.2673731 C7.68208229,32.4051235 7.7374576,32.5680399 7.7374576,32.7395656 L7.7374576,32.7395656 L7.7374576,37.1449299 C7.7374576,37.2244013 7.80417484,37.2912898 7.88490269,37.2912898 L7.88490269,37.2912898 L13.6319256,37.2912898 C13.7119862,37.2912898 13.7793706,37.2244013 13.7793706,37.1449299 L13.7793706,37.1449299 L13.8067247,32.7362543 C13.8067247,32.5680399 13.8627672,32.4024745 13.9655117,32.2673731 L13.9655117,32.2673731 L19.9820722,24.3308298 L19.9820722,20.0936799 C19.9820722,20.0142085 19.915355,19.9473201 19.8346271,19.9473201 L19.8346271,19.9473201 Z M122.227573,14.5482984 C125.482707,14.5482984 127.108607,16.4251479 127.108607,20.1748732 C127.108607,21.2901218 126.934475,22.2444408 126.58154,23.0431283 C126.269971,23.753735 125.744906,24.338512 125.009015,24.8014329 C124.847559,24.9034212 124.768833,25.0981261 124.830213,25.2782613 L124.830213,25.2782613 L127.525589,33.1836783 C127.614323,33.4465961 127.418175,33.7194479 127.137962,33.7194479 L127.137962,33.7194479 L125.077734,33.7194479 C124.898932,33.7194479 124.742146,33.6028899 124.688105,33.4346754 L124.688105,33.4346754 L122.288953,25.8186667 C122.234912,25.6484655 122.078127,25.5338942 121.899325,25.5338942 L121.899325,25.5338942 L120.952607,25.5338942 C120.726436,25.5338942 120.544965,25.7140294 120.544965,25.9378738 L120.544965,25.9378738 L120.544965,33.3081834 C120.544965,33.5320279 120.363494,33.712163 120.13799,33.712163 L120.13799,33.712163 L118.187845,33.712163 C117.96234,33.712163 117.78087,33.5320279 117.78087,33.3081834 L117.78087,33.3081834 L117.78087,14.952278 C117.78087,14.7284336 117.96234,14.5482984 118.187845,14.5482984 L118.187845,14.5482984 Z M47.2777621,14.5506826 C47.4692406,14.5506826 47.633365,14.6824726 47.6700595,14.8672436 L47.6700595,14.8672436 L51.8005237,33.2224868 C51.859902,33.476133 51.6657549,33.7171962 51.4035561,33.7171962 L51.4035561,33.7171962 L49.4827668,33.7171962 C49.2892868,33.7171962 49.1198251,33.5807703 49.0831306,33.3907012 L49.0831306,33.3907012 L48.3986117,29.9264107 C48.3619172,29.7363416 48.1951241,29.5999157 47.9989755,29.5999157 L47.9989755,29.5999157 L44.9006269,29.5999157 C44.707147,29.5999157 44.5383523,29.7363416 44.5009907,29.9264107 L44.5009907,29.9264107 L43.817139,33.3907012 C43.7804445,33.5807703 43.6129843,33.7171962 43.4168356,33.7171962 L43.4168356,33.7171962 L41.4967135,33.7171962 C41.2365162,33.7171962 41.0430363,33.476133 41.0990787,33.2224868 L41.0990787,33.2224868 L45.2295429,14.8672436 C45.2715748,14.6824726 45.4356992,14.5506826 45.6271777,14.5506826 L45.6271777,14.5506826 Z M53.9032509,14.5506826 C54.101401,14.5506826 54.2728644,14.6970424 54.3055558,14.8917473 L54.3055558,14.8917473 L56.446512,27.9296919 L56.5005529,27.9296919 L58.6688631,14.8890983 C58.7008874,14.6943934 58.8723507,14.5506826 59.0711681,14.5506826 L59.0711681,14.5506826 L61.1534131,14.5506826 C61.4109416,14.5506826 61.6050888,14.7844609 61.5510478,15.0374449 L61.5510478,15.0374449 L57.75884,33.3933503 C57.7194769,33.5807703 57.5526838,33.7171962 57.3592038,33.7171962 L57.3592038,33.7171962 L55.5858596,33.7171962 C55.3917124,33.7171962 55.2249193,33.5807703 55.1855562,33.3933503 L55.1855562,33.3933503 L51.4207024,15.0374449 C51.3693302,14.7844609 51.5628102,14.5506826 51.8203387,14.5506826 L51.8203387,14.5506826 Z M133.94739,14.2270353 C134.506481,14.2270353 135.06357,14.3263746 135.615321,14.5237285 C136.167073,14.7210825 136.662782,15.0131399 137.106451,15.3979139 C137.550788,15.7826879 137.905724,16.2720992 138.175929,16.8661479 C138.448135,17.4575475 138.582904,18.139677 138.582904,18.9112118 L138.582904,18.9112118 L138.582904,19.476121 C138.582904,19.6999654 138.401433,19.8801005 138.175929,19.8801005 L138.175929,19.8801005 L136.225784,19.8801005 C136.00028,19.8801005 135.818809,19.6999654 135.818809,19.476121 L135.818809,19.476121 L135.818809,18.9112118 C135.818809,18.2469634 135.632668,17.757552 135.262387,17.4429778 C134.891439,17.1290658 134.45244,16.9707852 133.94739,16.9707852 C133.442341,16.9707852 133.003341,17.1290658 132.632393,17.4429778 C132.259444,17.7595388 132.075972,18.2469634 132.075972,18.9112118 L132.075972,18.9112118 L132.075972,29.0279203 C132.075972,29.6921688 132.262113,30.1815801 132.632393,30.4961544 C133.003341,30.8100664 133.439672,30.9683469 133.94739,30.9683469 C134.45244,30.9683469 134.891439,30.8100664 135.262387,30.4961544 C135.632668,30.1815801 135.818809,29.6921688 135.818809,29.0279203 L135.818809,29.0279203 L135.818809,25.8258854 C135.818809,25.602041 135.637338,25.4219058 135.411834,25.4219058 L135.411834,25.4219058 L134.030787,25.4219058 C133.805283,25.4219058 133.623812,25.2417706 133.623812,25.0179262 L133.623812,25.0179262 L133.623812,23.4059814 C133.623812,23.182137 133.805283,23.0020018 134.030787,23.0020018 L134.030787,23.0020018 L138.178597,23.0020018 C138.404102,23.0020018 138.585573,23.182137 138.585573,23.4059814 L138.585573,23.4059814 L138.585573,29.0325562 C138.585573,29.8239588 138.450804,30.5107241 138.178597,31.0921898 C137.905724,31.6769668 137.54812,32.1610801 137.106451,32.5458541 C136.662782,32.9306281 136.167073,33.2226855 135.615321,33.4200394 C135.06357,33.6173934 134.506481,33.7173949 133.94739,33.7173949 C133.385631,33.7173949 132.831211,33.6173934 132.279459,33.4200394 C131.727708,33.2226855 131.231999,32.9332771 130.788329,32.5458541 C130.343992,32.1610801 129.988389,31.6769668 129.716183,31.0921898 C129.443977,30.5080751 129.309208,29.8213098 129.309208,29.0325562 L129.309208,29.0325562 L129.309208,18.9112118 C129.309208,18.139677 129.443977,17.4575475 129.716183,16.8661479 C129.988389,16.2720992 130.343992,15.7853369 130.788329,15.3979139 C131.231999,15.0131399 131.727708,14.7210825 132.279459,14.5237285 C132.831211,14.3263746 133.385631,14.2270353 133.94739,14.2270353 Z M142.424349,14.5506826 C142.60582,14.5506826 142.765274,14.6698897 142.816646,14.84274 L142.816646,14.84274 L144.955601,22.1693403 L145.009642,22.1693403 L147.148597,14.84274 C147.199969,14.6698897 147.359423,14.5506826 147.540894,14.5506826 L147.540894,14.5506826 L149.593783,14.5506826 C149.873329,14.5506826 150.069477,14.8235344 149.97674,15.0838032 L149.97674,15.0838032 L146.385351,25.5481991 C146.370674,25.5925706 146.363335,25.6362799 146.363335,25.6799892 L146.363335,25.6799892 L146.363335,33.3132166 C146.363335,33.5370611 146.181864,33.7171962 145.95636,33.7171962 L145.95636,33.7171962 L144.006215,33.7171962 C143.78071,33.7171962 143.59924,33.5370611 143.59924,33.3132166 L143.59924,33.3132166 L143.59924,25.6826382 C143.59924,25.6362799 143.591901,25.5925706 143.577223,25.5508481 L143.577223,25.5508481 L139.985834,15.0864522 C139.895766,14.8235344 140.091914,14.5506826 140.37146,14.5506826 L140.37146,14.5506826 Z M34.9179935,14.5506826 C36.4925203,14.5506826 37.694765,14.9838017 38.5260617,15.8560002 C39.355357,16.7275365 39.7723398,17.9421244 39.7723398,19.503075 L39.7723398,19.503075 L39.7723398,28.4654616 C39.7723398,30.2595283 39.3333403,31.5840515 38.457343,32.4363822 C37.5820128,33.288713 36.321057,33.7145472 34.6751428,33.7145472 L34.6751428,33.7145472 L31.231199,33.7145472 C31.0056947,33.7145472 30.8242238,33.534412 30.8242238,33.3105676 L30.8242238,33.3105676 L30.8242238,14.9546622 C30.8242238,14.7308177 31.0056947,14.5506826 31.231199,14.5506826 L31.231199,14.5506826 Z M65.9291664,14.5506826 C66.1546707,14.5506826 66.3388102,14.7308177 66.3361415,14.9546622 L66.3361415,14.9546622 L66.3361415,33.3105676 C66.3361415,33.534412 66.1546707,33.7145472 65.9291664,33.7145472 L65.9291664,33.7145472 L63.9790215,33.7145472 C63.7535173,33.7145472 63.5720464,33.534412 63.5720464,33.3105676 L63.5720464,33.3105676 L63.5720464,14.9546622 C63.5720464,14.7308177 63.7535173,14.5506826 63.9790215,14.5506826 L63.9790215,14.5506826 Z M73.4836927,14.5506826 C75.0582195,14.5506826 76.2604641,14.9838017 77.0917609,15.8560002 C77.9210561,16.7275365 78.3380389,17.9421244 78.3380389,19.503075 L78.3380389,19.503075 L78.3380389,28.4654616 C78.3380389,30.2595283 77.8990394,31.5840515 77.0230421,32.4363822 C76.147712,33.288713 74.8867562,33.7145472 73.2408419,33.7145472 L73.2408419,33.7145472 L69.7975653,33.7145472 C69.5713938,33.7145472 69.3899229,33.534412 69.3899229,33.3105676 L69.3899229,33.3105676 L69.3899229,14.9546622 C69.3899229,14.7308177 69.5713938,14.5506826 69.7975653,14.5506826 L69.7975653,14.5506826 Z M93.2354643,14.5506826 C93.4609686,14.5506826 93.6424395,14.7308177 93.6424395,14.9546622 L93.6424395,14.9546622 L93.6424395,16.7301856 C93.6424395,16.95403 93.4609686,17.1341652 93.2354643,17.1341652 L93.2354643,17.1341652 L88.5725966,17.1341652 C88.3470923,17.1341652 88.1656214,17.3143003 88.1656214,17.5381448 L88.1656214,17.5381448 L88.1656214,22.3567603 C88.1656214,22.5806048 88.3470923,22.7607399 88.5725966,22.7607399 L88.5725966,22.7607399 L92.5289288,22.7607399 C92.754433,22.7607399 92.9359039,22.9408751 92.9359039,23.1647195 L92.9359039,23.1647195 L92.9359039,24.9395807 C92.9359039,25.1640874 92.754433,25.3442225 92.5289288,25.3442225 L92.5289288,25.3442225 L88.5725966,25.3442225 C88.3470923,25.3442225 88.1656214,25.5243577 88.1656214,25.7482021 L88.1656214,25.7482021 L88.1656214,30.5668177 C88.1656214,30.7906621 88.3470923,30.9707973 88.5725966,30.9707973 L88.5725966,30.9707973 L93.2354643,30.9707973 C93.4609686,30.9707973 93.6424395,31.1509324 93.6424395,31.3747769 L93.6424395,31.3747769 L93.6424395,33.3105676 C93.6424395,33.534412 93.4609686,33.7145472 93.2354643,33.7145472 L93.2354643,33.7145472 L85.8085014,33.7145472 C85.58233,33.7145472 85.4008591,33.534412 85.4008591,33.3105676 L85.4008591,33.3105676 L85.4008591,14.9546622 C85.4008591,14.7308177 85.58233,14.5506826 85.8085014,14.5506826 L85.8085014,14.5506826 Z M98.1950903,14.5506826 C98.3692223,14.5506826 98.5213376,14.657969 98.5800488,14.8182363 L98.5800488,14.8182363 L102.659141,26.0985385 L102.713182,26.0985385 L102.713182,14.9546622 C102.713182,14.7308177 102.894653,14.5506826 103.120157,14.5506826 L103.120157,14.5506826 L105.070302,14.5506826 C105.295806,14.5506826 105.479946,14.7308177 105.477305,14.9546622 L105.477305,14.9546622 L105.477305,33.3105676 C105.477305,33.534412 105.295806,33.7145472 105.070302,33.7145472 L105.070302,33.7145472 L103.15952,33.7145472 C102.988057,33.7145472 102.835941,33.6099098 102.776563,33.4489803 L102.776563,33.4489803 L98.6440973,22.1931817 L98.5900564,22.1931817 L98.5900564,33.3105676 C98.5900564,33.534412 98.4085855,33.7145472 98.1830812,33.7145472 L98.1830812,33.7145472 L96.2329364,33.7145472 C96.0074321,33.7145472 95.825294,33.534412 95.825294,33.3105676 L95.825294,33.3105676 L95.825294,14.9546622 C95.825294,14.7308177 96.0074321,14.5506826 96.2329364,14.5506826 L96.2329364,14.5506826 Z M115.492268,14.5506826 C115.717772,14.5506826 115.901912,14.7308177 115.899272,14.9546622 L115.899272,14.9546622 L115.899272,16.7301856 C115.899272,16.95403 115.717772,17.1341652 115.492268,17.1341652 L115.492268,17.1341652 L110.8294,17.1341652 C110.603896,17.1341652 110.422425,17.3143003 110.422425,17.5381448 L110.422425,17.5381448 L110.422425,22.3567603 C110.422425,22.5806048 110.603896,22.7607399 110.8294,22.7607399 L110.8294,22.7607399 L114.785733,22.7607399 C115.011904,22.7607399 115.193375,22.9408751 115.193375,23.1647195 L115.193375,23.1647195 L115.193375,24.9395807 C115.193375,25.1640874 115.011904,25.3442225 114.785733,25.3442225 L114.785733,25.3442225 L110.8294,25.3442225 C110.603896,25.3442225 110.422425,25.5243577 110.422425,25.7482021 L110.422425,25.7482021 L110.422425,30.5668177 C110.422425,30.7906621 110.603896,30.9707973 110.8294,30.9707973 L110.8294,30.9707973 L115.492268,30.9707973 C115.717772,30.9707973 115.899272,31.1509324 115.899272,31.3747769 L115.899272,31.3747769 L115.899272,33.3105676 C115.899272,33.534412 115.717772,33.7145472 115.492268,33.7145472 L115.492268,33.7145472 L108.065305,33.7145472 C107.839801,33.7145472 107.65833,33.534412 107.65833,33.3105676 L107.65833,33.3105676 L107.65833,14.9546622 C107.65833,14.7308177 107.839801,14.5506826 108.065305,14.5506826 L108.065305,14.5506826 Z M34.8639526,17.1341652 L33.99863,17.1341652 C33.7724586,17.1341652 33.5909877,17.3143003 33.5909877,17.5381448 L33.5909877,17.5381448 L33.5909877,30.727085 C33.5909877,30.9509294 33.7724586,31.1310646 33.99863,31.1310646 L33.99863,31.1310646 L34.8639526,31.1310646 C35.6418756,31.1310646 36.1936271,30.9390087 36.5198744,30.5515857 C36.8461217,30.1674739 37.0082446,29.5608423 37.0082446,28.7356643 L37.0082446,28.7356643 L37.0055759,28.7356643 L37.0055759,19.503075 C37.0055759,18.7480968 36.8507919,18.1659688 36.5445598,17.7520553 C36.2376605,17.3407908 35.67857,17.1341652 34.8639526,17.1341652 L34.8639526,17.1341652 Z M73.4296517,17.1341652 L72.5643291,17.1341652 C72.3381577,17.1341652 72.1566868,17.3143003 72.1566868,17.5381448 L72.1566868,17.5381448 L72.1566868,30.727085 C72.1566868,30.9509294 72.3381577,31.1310646 72.5643291,31.1310646 L72.5643291,31.1310646 L73.4296517,31.1310646 C74.2075747,31.1310646 74.7593262,30.9390087 75.0855735,30.5515857 C75.4118208,30.1674739 75.5732765,29.5608423 75.5732765,28.7356643 L75.5732765,28.7356643 L75.571275,28.7356643 L75.571275,19.503075 C75.571275,18.7480968 75.416491,18.1659688 75.1102589,17.7520553 C74.8033596,17.3407908 74.2442692,17.1341652 73.4296517,17.1341652 L73.4296517,17.1341652 Z M46.4658133,20.0679842 L46.4117724,20.0679842 L45.1514838,26.5296708 C45.102113,26.780668 45.2935915,27.0117973 45.55112,27.0117973 L45.55112,27.0117973 L47.3271329,27.0117973 C47.5819927,27.0117973 47.7754727,26.780668 47.7267691,26.5296708 L47.7267691,26.5296708 L46.4658133,20.0679842 Z M121.987391,17.1337678 L120.957277,17.1337678 C120.731773,17.1337678 120.549635,17.313903 120.549635,17.5384097 L120.549635,17.5384097 L120.549635,22.7047126 C120.549635,22.928557 120.731773,23.1086922 120.957277,23.1086922 L120.957277,23.1086922 L122.12216,23.1086922 C122.61053,23.1086922 122.998158,23.0404792 123.287043,22.9067024 C123.576596,22.7702765 123.79743,22.5782206 123.952214,22.3272235 C124.104329,22.0768886 124.209743,21.7676124 124.263784,21.3993949 C124.317157,21.0318397 124.34718,20.6060055 124.34718,20.12123 C124.34718,19.6371168 124.319826,19.2106203 124.266452,18.8430651 C124.211744,18.4755099 124.098992,18.1615979 123.927529,17.9006668 C123.756065,17.640398 123.515216,17.4483421 123.208984,17.3211879 C122.900083,17.1973449 122.492441,17.1337678 121.987391,17.1337678 L121.987391,17.1337678 Z M14.9629344,4.85570222 L11.8225541,4.85570222 L11.8225541,18.2949773 L18.0586143,18.2949773 L18.0586143,11.9061395 L15.7575367,11.9061395 C15.3185373,11.9061395 14.9629344,11.553154 14.9629344,11.1173859 L14.9629344,11.1173859 L14.9629344,4.85570222 Z M6.78139958,11.9061395 L3.6410192,11.9061395 L3.6410192,18.2949773 L6.78139958,18.2949773 L6.78139958,11.9061395 Z" fill="#23C45D"></path>
    </g>
</svg>
