<?xml version="1.0" encoding="utf-8"?>
<!-- Generator: Adobe Illustrator 19.0.0, SVG Export Plug-In . SVG Version: 6.00 Build 0)  -->
<svg version="1.1" id="Layer_1" xmlns="http://www.w3.org/2000/svg" xmlns:xlink="http://www.w3.org/1999/xlink" x="0px" y="0px"
	 viewBox="0 0 500 500" style="enable-background:new 0 0 500 500;" xml:space="preserve">
<g id="XMLID_1_">
	<rect id="XMLID_3_" x="76.1" y="350.4" class="st0" width="347.9" height="77.7"/>
	<rect id="XMLID_4_" x="67.5" y="63.3" class="st1" width="365" height="287.2"/>
	<path id="XMLID_5_" class="st0" d="M250,104c71.5,0,135,35.2,174,89.2V71.8H76.1v121.3C115,139.2,178.5,104,250,104L250,104z"/>
	<path id="XMLID_6_" class="st0" d="M250,112.6c-72.4,0-136.4,37-173.9,93.1v136.2h347.9V205.7C386.4,149.6,322.4,112.6,250,112.6
		L250,112.6z"/>
	<path id="XMLID_7_" class="st1" d="M250,112.6c72.4,0,136.4,37,174,93.2v-12.5c-39-54-102.4-89.2-174-89.2
		c-71.5,0-135,35.2-173.9,89.2v12.5C113.6,149.6,177.6,112.6,250,112.6L250,112.6z"/>
	<path id="XMLID_15_" class="st1" d="M110.3,255.4c-0.7,1.4-1.3,2.8-1.7,4.1c-14,4.2-23.3,0.5-23.9,0.2c-1.4-0.6-3,0.1-3.6,1.5
		c-0.6,1.4,0,3,1.4,3.6c0.7,0.3,10.3,4.3,24.8,0.8c0,0.2,0,0.4,0,0.6c0,4.1,1.7,6.8,4,8.3c6.3,4.1,20.1,0.6,40.2-19.9
		c-1.3,3.7-2.5,7.8-3.2,11.9c0,0.2,0,0.4,0,0.5c0,1.2,0.7,2.2,1.8,2.6c2.2,0.9,3.4-0.9,4.5-2.5l2.8-4.1c2.4-3.6,7.8-11.8,11.5-16
		c-0.4,2.3-0.9,5-0.9,7.5c0,3.4,0.8,6.5,3.6,8.1c2.3,1.3,6,1.8,14-3c0.7,1.8,2,2.7,2.8,3.1c5.1,2.4,14.7-2.7,24.7-12.3
		c-1.4,3-2.4,5.6-2.7,6.6c-0.1,0.3-0.1,0.6-0.1,0.8c0,1.3,0.8,2.2,1.7,2.6c2.2,1,3.6-1,4.7-2.5l3-4.4c2.5-3.7,8.4-12.4,11.8-16
		c1,2.5,2.8,5.6,6.1,7.5c-0.9,2.1-1.4,4-1.4,5.6c0,1.9,0.7,3.4,2.2,4.3c2.6,1.8,6.5,0.8,10.6-1.4c-13,12.9-19,25.8-19.2,31.5
		c0,0.1,0,0.2,0,0.3c0,3.2,1.6,4.5,2.5,4.9c2,1,4.4,0.4,7.2-1.8c9.8-7.8,16.9-26.3,20.6-37.6c4.9-4,10.6-7.9,17.2-11.4
		c-2.1,3.7-3.3,7.3-3.3,10.1c0,1,0.2,2,0.5,2.8c0.8,2,2.4,3.3,4.4,3.5c4.5,0.5,10.8-4.2,18.2-13.3c-0.6,1.8-1.3,3.6-1.9,5.3
		c-20.5,16.1-29.7,33.4-30.9,42.8c-0.1,0.8-0.2,1.5-0.2,2.1c0,3.7,1.5,5.5,2.9,6.2c1.6,0.9,4.2,1.3,8.1-1.7
		c4.3-3.3,14.7-19.5,24.7-46.2c13.3-10.2,31.5-20,55.7-26.7c1.2-0.3,2-1.4,2-2.7c0-0.2,0-0.5-0.1-0.7c-0.4-1.5-1.9-2.3-3.4-1.9
		c-21.2,5.9-37.9,14.1-51,22.9c1.6-4.6,3.1-9.5,4.6-14.7c0.1-0.3,0.1-0.5,0.1-0.8c0-1.1-0.6-2-1.6-2.5c-1.2-0.6-2.7-0.1-3.4,1
		c-13.6,21.4-21.4,25.3-23.1,25.3c-0.1-0.2-0.2-0.5-0.2-0.8c0-2.4,2.1-8.5,8.8-15.7c0.5-0.5,0.8-1.2,0.8-1.9c0-0.5-0.2-1.1-0.5-1.6
		c-0.7-1.1-2.1-1.5-3.3-1c-8.6,3.6-16,8-22.5,12.5c0.1-0.3,0.1-0.5,0.1-0.5c0-0.2,0.1-0.4,0.1-0.7c0-1-0.6-2-1.5-2.4
		c-0.1,0-0.1,0-0.1,0c1.9-1.5,3.8-3.1,5.9-5c2.2-2,2.7-3.8,2.7-5.2c0-0.6-0.1-1.1-0.2-1.5c-0.6-1.9-2.4-3.2-4.9-3.5
		c-6.1-0.7-15.7,4.4-24.3,17.1c-2.9-1.6-4.1-5.4-4.6-7.2l-0.2-0.7c-0.4-1.1-1.4-1.9-2.6-1.9c-1.9,0-3.9,1.3-7,5
		c0-0.1,0.1-0.2,0.1-0.3c0.2-0.4,0.3-0.8,0.3-1.2c0-0.9-0.5-1.8-1.3-2.3c-1.2-0.7-2.8-0.4-3.6,0.7c-15.3,20.6-28.7,26.3-30.8,25.3
		c0-0.1-0.1-0.2-0.1-0.6c0-0.2,0-0.6,0.1-1c3.4-2.4,7.5-5.6,12.2-9.8c4.4-3.8,5.4-7,5.4-9c0-0.9-0.2-1.6-0.4-2.1
		c-0.9-2.1-3.1-3.3-5.7-3.1c-5.7,0.5-12.8,7.1-16.3,20.6c-8.9,6.1-11.3,5.1-11.6,4.9c-1.2-0.7-1.1-4.5,0.3-11.3
		c0.6-3,0.9-4.4,0.2-5.6c-0.7-1.2-1.8-2-3.2-2c-2.9-0.1-6.1,2.9-12.9,12.5c2.7-6.4,5.3-10.8,5.4-10.8c0.3-0.5,0.4-0.9,0.4-1.4
		c0-0.9-0.4-1.7-1.2-2.2c-1.2-0.8-2.8-0.6-3.7,0.5c-24.1,29.4-40.5,35.5-45.2,32.5c-1-0.7-1.5-1.9-1.5-3.6c0-0.7,0.1-1.5,0.3-2.3
		c9-3.2,19.5-9.4,30.5-20.7c6.5-6.7,10-12.9,10-17.7c0-1.1-0.2-2.1-0.5-3c-1-2.5-3.2-4-6.1-4.1C138.3,217.9,123.6,229.2,110.3,255.4
		L110.3,255.4z M146.7,223.8c1,0.1,1.2,0.4,1.3,0.6c0.1,0.2,0.1,0.6,0.1,1c0,2.4-2.1,7.3-8.5,13.8c-8.5,8.8-16.6,14.2-23.8,17.5
		C128.5,232.4,141.5,223.6,146.7,223.8L146.7,223.8z M200.8,238.2c0.9-0.5,1.5-0.6,1.9-0.6c-0.1,0.7-0.8,2.2-3.5,4.6
		c-2,1.7-3.8,3.3-5.5,4.6C196.5,241,199.6,238.8,200.8,238.2L200.8,238.2z M261.7,228.8c1-0.2,1.7-0.2,2.1-0.2
		c-0.1,0.2-0.3,0.4-0.6,0.7c-6.3,5.8-11.8,9.6-16.2,11C253.8,231.3,259.8,229.2,261.7,228.8L261.7,228.8z M253.4,243.4
		c-5.3,4.7-10.1,6.9-11.9,6.9c0-0.5,0.3-1.7,1.3-3.9C246,246.5,249.5,245.5,253.4,243.4L253.4,243.4z M251.3,258.6
		c-3.7,9.6-9,20.4-15.4,25.4c-0.3,0.2-0.6,0.4-0.8,0.6C235.3,280.7,240.2,270,251.3,258.6L251.3,258.6z M269.3,292.6
		c0-1.3,0.3-3.3,1.3-6.2c2.5-7.2,8.8-17.4,20-27.9c-8.4,20.2-16.3,32.1-19.2,34.3c-0.9,0.7-1.6,1-2,1.1
		C269.4,293.8,269.3,293.4,269.3,292.6L269.3,292.6z"/>
	<path id="XMLID_16_" class="st1" d="M347.9,162.7c-1.7,0-3.2,1-3.8,2.6c0,0-15.1,38.6-16.8,43c-4.7,0.3-45.9,2.4-45.9,2.4
		c-2.2,0.1-3.9,1.9-3.9,4.1c0,0.1,0,0.1,0,0.2c0.1,2.3,2,4,4.3,3.9l48.6-2.6c1.6-0.1,3-1.1,3.6-2.6c0,0,9.2-23.6,13.9-35.7
		c4.7,12.1,13.8,35.6,13.8,35.6c0.6,1.5,2,2.5,3.6,2.6c0,0,25.1,1.4,37.9,2.2c-9.9,8.2-29.3,24.3-29.3,24.3c-1,0.8-1.5,1.9-1.5,3.2
		c0,0.3,0,0.7,0.1,1c0,0,6.2,24.3,9.4,36.8c-10.8-7-31.8-20.5-31.8-20.5c-1.3-0.9-3.1-0.9-4.4,0c0,0-21.3,13.5-32.3,20.5
		c3.4-12.1,9.4-33.9,9.4-33.9c0.1-0.4,0.1-0.7,0.1-1.1c0-1.8-1.2-3.4-3-4c-2.2-0.6-4.5,0.7-5.1,2.9l-12.2,44.2
		c-0.5,1.6,0.1,3.4,1.5,4.4c1.4,1,3.2,1.1,4.7,0.2c0,0,35.1-22.3,39-24.8c3.9,2.6,38.4,24.8,38.4,24.8c1.4,0.9,3.2,0.9,4.6-0.1
		c1.1-0.8,1.7-2,1.7-3.3c0-0.3-0.1-0.7-0.1-1c0,0-10.2-39.9-11.4-44.4c3.6-3,35.3-29.3,35.3-29.3c0.9-0.8,1.5-2,1.5-3.2
		c0-0.4-0.1-0.9-0.2-1.3c-0.5-1.6-2-2.7-3.7-2.8c0,0-40.9-2.3-45.6-2.6c-1.7-4.4-16.7-42.9-16.7-42.9
		C351.1,163.7,349.6,162.7,347.9,162.7L347.9,162.7z"/>
	<polygon id="XMLID_17_" class="st1" points="423.9,350.4 423.9,428.2 76.1,428.2 76.1,350.4 67.5,350.4 67.5,428.2 67.5,436.7
		76.1,436.7 423.9,436.7 432.5,436.7 432.5,436.7 432.5,350.4 	"/>
	<polygon id="XMLID_18_" class="st1" points="91.1,411.1 91.1,367.6 113.5,367.6 113.5,372.4 96.6,372.4 96.6,386.4 112.3,386.4
		112.3,391.2 96.6,391.2 96.6,406.2 113.8,406.2 113.8,411.1 	"/>
	<polygon id="XMLID_19_" class="st1" points="150.6,367.6 150.6,411.1 143,411.1 125.8,373.3 125.7,373.3 125.7,411.1 120.8,411.1
		120.8,367.6 128.6,367.6 145.6,404.8 145.7,404.8 145.7,367.6 	"/>
	<polygon id="XMLID_20_" class="st1" points="158.3,411.1 158.3,367.6 180.7,367.6 180.7,372.4 163.8,372.4 163.8,386.4
		179.5,386.4 179.5,391.2 163.8,391.2 163.8,406.2 181.1,406.2 181.1,411.1 	"/>
	<path id="XMLID_23_" class="st1" d="M193.3,372.4h8.4c4.3,0,5.8,3.5,5.8,6.6c0,3.8-1.9,7.2-5.9,7.2h-8.3L193.3,372.4L193.3,372.4z
		 M199.8,391.1c1.9,0,6.1,0.2,6.6,5.5c0.5,5.8,0.1,11.5,1.7,14.5h5.8c-0.9-2.7-1.5-9.5-1.5-11.4c-0.3-8.7-2.1-10.4-7.1-11.2v-0.1
		c5.1-0.9,8-4.8,8-9.9c0-5.4-2.7-10.9-10.4-10.9h-15v43.5h5.5v-20L199.8,391.1L199.8,391.1z"/>
	<path id="XMLID_24_" class="st1" d="M240,379.2c0-5.1-2.1-7.9-7.7-7.9c-1.7,0-8,0.3-8,9.4v14.7c0,9.5,2.8,11.9,8,11.9
		c4,0,6.6-1.1,7.8-1.9v-13h-8v-4.8h13.6v21.2c-3.6,1.9-7.7,3.3-13.3,3.3c-9.2,0-13.7-4.8-13.7-16.8v-14.3c0-8.7,4.5-14.2,13.7-14.2
		c9.4,0,13.9,3.4,13.5,12.5L240,379.2L240,379.2z"/>
	<polygon id="XMLID_25_" class="st1" points="272.2,367.6 277.8,367.6 265.9,394.5 265.9,411.1 260.4,411.1 260.4,394.5
		248.7,367.6 254.9,367.6 263.4,388.6 	"/>
	<path id="XMLID_26_" class="st1" d="M296.5,398.1v1.3c0,5.9,3.7,7.8,7.3,7.8c4.4,0,7.8-1.9,7.8-7.1c0-9.6-19.5-8.6-19.5-21.6
		c0-7.7,5.5-11.8,12.8-11.8c8,0,12.4,3.9,12,12.7h-5.8c0.1-4.8-1.4-7.9-6.7-7.9c-3.3,0-6.7,1.7-6.7,6.4c0,9.6,19.5,8.2,19.5,22
		c0,9.2-6.3,12.1-13.5,12.1c-12.8,0.1-12.8-9.7-12.7-13.9H296.5L296.5,398.1z"/>
	<polygon id="XMLID_27_" class="st1" points="348.2,367.6 348.2,372.4 336.8,372.4 336.8,411.1 331.2,411.1 331.2,372.4
		319.8,372.4 319.8,367.6 	"/>
	<path id="XMLID_30_" class="st1" d="M367.8,395.9h-13.9l6.8-23.2h0.1L367.8,395.9L367.8,395.9z M343.6,411.1h5.6l3.3-10.4h16.8
		l3.1,10.4h6.2l-14.2-43.5h-7.1L343.6,411.1L343.6,411.1z"/>
	<path id="XMLID_33_" class="st1" d="M388.4,372.4h8.4c4.3,0,5.8,3.5,5.8,6.6c0,3.8-1.9,7.2-5.9,7.2h-8.3V372.4L388.4,372.4z
		 M394.9,391.1c1.9,0,6.1,0.2,6.6,5.5c0.5,5.8,0.1,11.5,1.7,14.5h5.8c-0.8-2.7-1.4-9.5-1.5-11.4c-0.3-8.7-2.1-10.4-7.1-11.2v-0.1
		c5.1-0.9,7.9-4.8,7.9-9.9c0-5.4-2.7-10.9-10.4-10.9h-15v43.5h5.5v-20L394.9,391.1L394.9,391.1z"/>
</g>
</svg>
