<?xml version="1.0" encoding="UTF-8"?>
<svg width="25px" height="27px" viewBox="0 0 25 27" version="1.1" xmlns="http://www.w3.org/2000/svg" xmlns:xlink="http://www.w3.org/1999/xlink">
    <title>icon-reports</title>
    <g id="icon-reports" stroke="none" stroke-width="1" fill="none" fill-rule="evenodd">
        <path d="M19.7494153,18.3963961 L24.1036543,22.7512696 L22.9408325,23.9125952 L20.571,21.542 L20.5719085,27 L18.9280915,27 L18.928,21.541 L16.5592042,23.9126318 L15.3963704,22.7512943 L19.7494153,18.3963961 Z M15.75,6.39488462e-14 C18.3004817,6.39488462e-14 20.3814697,2.01014129 20.4951121,4.532572 L20.5,4.75 L20.5010275,15.7903451 C20.2528745,15.7635837 20.002342,15.75 19.7504087,15.75 C19.4986452,15.749979 19.2482792,15.7635214 19.0002876,15.7902223 L19,4.75 C19,2.95507456 17.5449254,1.5 15.75,1.5 L4.75,1.5 C3.01696854,1.5 1.60075407,2.85645477 1.50514479,4.56557609 L1.5,4.75 L1.5,18.75 C1.5,20.4830315 2.85645477,21.8992459 4.56557609,21.9948552 L4.75,22 L12.7902227,22.0002946 C12.7635216,22.2482867 12.7499792,22.4986531 12.75,22.750417 C12.75,23.0023504 12.7635838,23.252883 12.7903455,23.5010359 L4.75,23.5 C2.19951834,23.5 0.11853034,21.4898587 0.00488785968,18.967428 L4.4408921e-14,18.75 L4.4408921e-14,4.75 C4.4408921e-14,2.19951834 2.01014129,0.11853034 4.532572,0.00488785968 L4.75,6.39488462e-14 L15.75,6.39488462e-14 Z M6.25,10.75 L6.25,17.75 L4.75,17.75 L4.75,10.75 L6.25,10.75 Z M8.625,9.75 L8.625,17.75 L7.125,17.75 L7.125,9.75 L8.625,9.75 Z M11,12.75 L11,17.75 L9.5,17.75 L9.5,12.75 L11,12.75 Z M13.375,10.75 L13.375,17.75 L11.875,17.75 L11.875,10.75 L13.375,10.75 Z M15.75,12.75 L15.7503085,17.0051057 C15.4324721,17.2263837 15.1316214,17.4750168 14.8514609,17.7494706 L14.25,17.75 L14.25,12.75 L15.75,12.75 Z M15.75,4.74001124 L15.75,6.24001124 L4.75,6.24001124 L4.75,4.74001124 L15.75,4.74001124 Z" fill="#575E68" fill-rule="nonzero"></path>
    </g>
</svg>
