<?xml version="1.0" encoding="UTF-8"?>
<svg width="23px" height="30px" viewBox="0 0 23 30" version="1.1" xmlns="http://www.w3.org/2000/svg" xmlns:xlink="http://www.w3.org/1999/xlink">
    <title>icon-pumps</title>
    <g id="icon-pumps" stroke="none" stroke-width="1" fill="none" fill-rule="evenodd">
        <path d="M11.3497797,7.10542736e-15 C11.8144823,7.10542736e-15 12.2113727,0.316962198 12.3290846,0.775509226 L12.352574,0.892994175 L12.3606653,1.01699377 L12.36,3.434 L12.6145414,3.45960937 C18.1105318,4.07661991 22.4000303,8.65368616 22.684923,14.2457358 L22.6962045,14.5409754 L22.7,14.8379941 C22.7,20.6840426 18.3162072,25.5734493 12.6142472,26.2157929 L12.36,26.24 L12.3606653,28.6830062 C12.3606653,29.1664068 12.0252158,29.5717331 11.574888,29.6747098 L11.4600404,29.6940252 L11.3497797,29.7 C10.8850771,29.7 10.4881867,29.3830378 10.3704748,28.9244908 L10.3469854,28.8070058 L10.3388941,28.6830062 L10.338,26.24 L10.0850172,26.2159341 C4.58901979,25.5989229 0.299531342,21.0218598 0.0150339895,15.430209 L0.00377360855,15.1349907 L-9.23705556e-14,14.8379941 C-9.23705556e-14,8.99150004 4.38339921,4.10209266 10.0853145,3.45975055 L10.338,3.434 L10.3388941,1.01699377 C10.3388941,0.533593216 10.6743436,0.12826688 11.1246714,0.0252902246 L11.239519,0.00597480151 L11.3497797,7.10542736e-15 Z M11.3497797,5.42098194 C6.20743875,5.42098194 2.02177117,9.64520249 2.02177117,14.8379941 C2.02177117,20.0306962 6.20734992,24.2545616 11.3497797,24.2545616 C16.4921485,24.2545616 20.677804,20.0307515 20.6782288,14.8379941 C20.6782288,9.64529199 16.4922095,5.42098194 11.3497797,5.42098194 Z M12.9953927,18.2845654 C13.292508,18.2838268 13.5682916,18.4357193 13.7297762,18.6876683 C13.834239,18.8523696 13.880435,19.0455055 13.8589693,19.2560027 L13.8378953,19.3842957 L13.7911419,19.5211639 L12.5281886,22.2976268 L12.4484236,22.4601533 C12.4112058,22.534681 12.3772842,22.5987814 12.3412188,22.6612934 C12.0905399,23.0957944 11.7867779,23.3600478 11.3497797,23.3600478 C10.8486163,23.3600478 10.5786625,23.0888296 10.2888823,22.5338184 L10.1658624,22.2865201 L8.90554837,19.5152562 C8.78857695,19.2459489 8.81183128,18.9348308 8.97049494,18.685419 C9.08111602,18.5133447 9.24735233,18.3869085 9.45588114,18.3235441 L9.58596696,18.2932335 L9.70285282,18.2845654 L12.9953927,18.2845654 Z M11.3497797,6.27681008 C11.8509925,6.27681008 12.1204799,6.54767313 12.4102495,7.10297191 L12.5332373,7.35029575 L13.794011,10.1216017 C13.9109825,10.390909 13.8877281,10.7020271 13.7290645,10.9514389 C13.6184434,11.1235132 13.4522071,11.2499494 13.2436783,11.3133138 L13.1135925,11.3436244 L12.9967066,11.3522952 L9.70416889,11.3522952 C9.40734513,11.3530322 9.1311819,11.2014493 8.96978321,10.9496343 C8.86532043,10.784933 8.81912443,10.5917971 8.8405901,10.3812999 L8.86166407,10.2530068 L8.90841746,10.1161387 L10.1712789,7.33986111 L10.2509779,7.17728388 C10.2881264,7.10282381 10.32201,7.03873656 10.3580261,6.97624882 C10.6087003,6.54133115 10.9125473,6.27681008 11.3497797,6.27681008 Z" fill="#575E68" fill-rule="nonzero"></path>
    </g>
</svg>
