<?xml version="1.0" encoding="UTF-8"?>
<svg width="23px" height="23px" viewBox="0 0 23 23" version="1.1" xmlns="http://www.w3.org/2000/svg" xmlns:xlink="http://www.w3.org/1999/xlink">
    <title>icon-lighting</title>
    <g id="icon-lighting" stroke="none" stroke-width="1" fill="none" fill-rule="evenodd">
        <path d="M11.1863973,5.07745607 C14.3164053,5.07745607 16.9249822,7.74601502 16.9249822,11.0331092 C16.9249822,12.6414728 16.6194163,13.6863491 15.7860137,14.9494473 L15.6122295,15.2052081 L14.9937153,16.0620404 C14.7330734,16.437512 14.5630219,16.738217 14.4532499,17.0199924 L14.403247,17.1595612 L14.3529165,17.3318868 L14.3328011,17.3874187 L14.3330575,20.1124175 C14.3330575,21.2717408 13.5118326,22.2520361 12.3992275,22.4604259 L12.2383589,22.4848808 L12.0722734,22.4978582 L11.9727336,22.5000023 L10.3859977,22.5000023 C9.1983819,22.5000023 8.20793791,21.6101576 8.04775972,20.4356193 L8.03112297,20.2737472 L8.02567386,20.1124377 L8.03195967,17.4441053 L8.00679093,17.3357135 C7.93536103,17.0551808 7.81746521,16.7832052 7.62939171,16.4685484 L7.50793659,16.2742226 L7.36603686,16.0633745 L7.27520359,15.9345432 L6.81715027,15.3053481 C5.79537652,13.8694896 5.43371212,12.7875591 5.43371212,11.0331092 C5.43371212,7.74851864 8.05306611,5.07745607 11.1863973,5.07745607 Z M11.1863973,6.91344656 C9.09529095,6.91344656 7.25266453,8.72440626 7.25266453,11.0331092 C7.25266453,12.3247251 7.50066145,13.0742463 8.13908582,14.0130689 L8.28191888,14.2174092 L8.63644316,14.7028459 C9.20004823,15.4754802 9.52309099,16.0335691 9.72145634,16.7096047 L9.78311941,16.9397744 L9.84462627,17.258787 L9.84462627,20.1124175 C9.84462627,20.360931 10.0067063,20.5732203 10.2201816,20.6401766 L10.3024278,20.6582596 L10.3859977,20.6640118 L11.9727336,20.6640118 C12.215312,20.6640118 12.4242296,20.5001595 12.4904691,20.2818649 L12.5084079,20.1976661 L12.5141051,20.1124175 L12.5179117,17.2153265 C12.6408137,16.5191165 12.9023811,15.9240442 13.331571,15.2642392 L13.500431,15.0134539 L13.6377438,14.8195721 L14.0969172,14.1893535 C14.823446,13.1708431 15.1060298,12.4042683 15.1060298,11.0331092 C15.1060298,8.7218221 13.2743079,6.91344656 11.1863973,6.91344656 Z M5.43451609,16.2984119 C5.91498338,16.2410661 6.37604263,16.505717 6.57357159,16.9509065 C6.72803637,17.2990383 6.6945161,17.6983737 6.48598564,18.0217007 L6.39960846,18.139137 L6.30923897,18.2330892 L4.95728688,19.5665288 C4.69432387,19.8985029 4.26735153,20.051119 3.85582983,19.9595905 C3.4449483,19.8682045 3.12141409,19.5494545 3.02026425,19.1377018 C2.94344915,18.825009 3.00455294,18.4970277 3.19026073,18.22742 L3.27743979,18.1156626 L4.73245084,16.6437465 C4.84671645,16.5260061 4.98491352,16.4357296 5.14550502,16.3767992 L5.23100029,16.3500023 L5.23326297,16.3224323 L5.43451609,16.2984119 Z M16.9089612,16.2973261 C17.1460003,16.279857 17.3805498,16.34003 17.5789331,16.4662433 L17.6933536,16.5498034 L17.7913137,16.6422129 L19.1486932,18.0182328 C19.4681638,18.2930788 19.6059287,18.7266773 19.5049295,19.1376723 C19.4037584,19.5493663 19.0802632,19.8680664 18.6694362,19.9594606 C18.3563452,20.0291121 18.0319904,19.9576651 17.7697888,19.7613917 L17.6614361,19.6696795 L17.5871762,19.588037 L16.2353598,18.2355624 C15.9227352,17.9352597 15.8116796,17.4789261 15.9504199,17.0666653 C16.0477564,16.777434 16.2557029,16.5466191 16.5193872,16.4188763 L16.6356473,16.3705701 L16.7080003,16.3490023 L16.7155348,16.3115811 L16.9089612,16.2973261 Z M1.1236572,10.5169646 L2.92193485,10.5166617 C3.28109937,10.5398155 3.60756256,10.7384102 3.79561056,11.0498975 C4.01120151,11.4070077 4.01120151,11.8558516 3.79561056,12.2129617 C3.63106856,12.4855131 3.36055243,12.6716312 3.04306307,12.7297569 L2.9042923,12.7467105 L1.24498117,12.7439829 C0.831789473,12.7964104 0.42476225,12.610216 0.191137884,12.2626686 C-0.0416996407,11.9162917 -0.0634113179,11.4675849 0.134790542,11.0999526 C0.333596478,10.7311998 0.720434682,10.5057337 1.1236572,10.5169646 Z M19.3255256,10.4783879 L19.4039326,10.4830428 L21.3090059,10.4837975 C21.7240614,10.4514747 22.1215655,10.6572413 22.3381131,11.0156645 C22.5539627,11.3729323 22.5539627,11.8221032 22.3381131,12.179371 C22.1733746,12.4520413 21.9025624,12.6381207 21.5848274,12.6960084 L21.4459549,12.7128477 L19.4310808,12.7105142 C18.8215079,12.7771032 18.2752515,12.3315173 18.2098466,11.7172156 C18.1488543,11.1443584 18.5273526,10.6249763 19.084247,10.5032801 L19.2062169,10.4834149 L19.3255256,10.4783879 Z M4.11376977,3.22862494 C4.31035715,3.23275003 4.50105858,3.28992472 4.6732836,3.3981563 L4.79879131,3.48887201 L4.88893002,3.57369204 L5.93980749,4.6402551 C6.27001316,4.90883978 6.42016459,5.343447 6.32758966,5.76089833 C6.23487169,6.17899466 5.91462653,6.50785062 5.50143523,6.60790445 C5.18652427,6.68415981 4.85764665,6.61750813 4.58995475,6.42335595 L4.47919481,6.33238664 L4.39781886,6.24578056 L3.34925159,5.16660823 C3.03508761,4.86339219 2.92596926,4.4026281 3.06986565,3.98884583 C3.21409503,3.57410601 3.58598513,3.28295258 3.97201087,3.25493064 L4.05867846,3.23358968 L4.11376977,3.22862494 Z M18.2920087,3.24515766 L18.3422388,3.24366353 L18.3922245,3.24516505 C18.8502578,3.23109212 19.2689395,3.50366079 19.4458178,3.92979535 C19.5842585,4.26332592 19.5531193,4.64024249 19.3625827,4.95229053 L19.2836797,5.0660564 L19.1983447,5.16096002 L18.1429732,6.24689775 C17.8616705,6.5327647 17.4502776,6.64490922 17.0645364,6.54044752 C16.679484,6.43617237 16.3793356,6.13215758 16.2767889,5.74369765 C16.1988609,5.44849641 16.2436478,5.13645797 16.4031629,4.86934587 L16.4785274,4.75779992 L16.5652548,4.65856451 L17.6333172,3.57671087 C17.7676437,3.43598922 17.9356037,3.33391321 18.1358199,3.27816363 L18.2920087,3.24515766 Z M11.1198612,0.0101731582 C11.4418955,-0.034007783 11.7667282,0.0671062674 12.0082116,0.286413427 C12.1746043,0.437525719 12.2905862,0.63497476 12.3439153,0.862096367 L12.3682965,1.00179672 L12.3744144,1.1392951 L12.3736973,2.73073241 C12.4053837,3.14819628 12.2032429,3.54885025 11.8494828,3.76813809 C11.4945641,3.98814419 11.0473644,3.98814419 10.6924457,3.76813809 C10.4232079,3.6012437 10.2400962,3.32794365 10.1832064,3.00838856 L10.1666697,2.86877981 L10.167599,1.14580956 C10.1528198,0.57883197 10.5613168,0.0898286473 11.1198612,0.0101731582 Z" fill="#575E68" fill-rule="nonzero"></path>
    </g>
</svg>
