<?xml version="1.0" encoding="UTF-8"?>
<svg width="22px" height="22px" viewBox="0 0 22 22" version="1.1" xmlns="http://www.w3.org/2000/svg" xmlns:xlink="http://www.w3.org/1999/xlink">
    <title>icon-notifications</title>
    <g id="icon-notifications" stroke="none" stroke-width="1" fill="none" fill-rule="evenodd">
        <path d="M7.19230769,18.2641509 L8.88461538,18.2641509 C8.88461538,19.4104023 9.83170536,20.3396226 11,20.3396226 C12.1682946,20.3396226 13.1153846,19.4104023 13.1153846,18.2641509 L14.8076923,18.2641509 C14.8076923,20.3274034 13.1029304,22 11,22 C8.89706963,22 7.19230769,20.3274034 7.19230769,18.2641509 Z M22,16.1879879 L22,16.6045617 C22,17.5240813 21.2423948,18.2641509 20.3071045,18.2641509 L1.69289547,18.2641509 C0.757864969,18.2641509 0,17.5215213 0,16.6045617 L0,16.1879879 C0,14.725666 1.10340378,13.5157489 2.53846154,13.3129248 L2.53846154,8.30157522 C2.53846154,3.71554962 6.32623936,0 11,0 C15.673792,0 19.4615385,3.7164363 19.4615385,8.30157522 L19.4615385,13.3128102 C20.8985596,13.5151885 22,14.7242079 22,16.1879879 Z M20.3076923,16.1879879 C20.3076923,15.4995836 19.7402422,14.9433962 19.0345599,14.9433962 C18.3354556,14.9433962 17.7692308,14.3836781 17.7692308,13.7011075 L17.7692308,8.30157522 C17.7692308,4.6334217 14.7391403,1.66037736 11,1.66037736 C7.26079754,1.66037736 4.23076923,4.6326268 4.23076923,8.30157522 L4.23076923,13.7011075 C4.23076923,14.3867282 3.66162707,14.9433962 2.96544008,14.9433962 C2.26211307,14.9433962 1.69230769,15.501332 1.69230769,16.1879879 L1.69230769,16.6039096 C1.69230769,16.6039096 20.3071045,16.6039096 20.3071045,16.6039096 C20.3073406,16.6039096 20.3076923,16.1879879 20.3076923,16.1879879 Z" fill="#575E68" fill-rule="nonzero"></path>
    </g>
</svg>
