<?xml version="1.0" encoding="UTF-8"?>
<svg width="23px" height="17px" viewBox="0 0 23 17" version="1.1" xmlns="http://www.w3.org/2000/svg" xmlns:xlink="http://www.w3.org/1999/xlink">
    <title>icon-other</title>
    <g id="icon-other" stroke="none" stroke-width="1" fill="none" fill-rule="evenodd">
        <path d="M19.5251702,-7.10542736e-15 C21.1890845,-7.10542736e-15 22.550221,1.32830116 22.642114,2.99476439 L22.6470588,3.17456291 L22.6470588,13.4724959 C22.6470588,14.3085306 22.3294157,15.0990757 21.7532135,15.6964369 C21.2117952,16.2575193 20.5005482,16.5887371 19.7351661,16.6400437 L19.5251702,16.6470588 L3.12188856,16.6470588 C1.45819509,16.6470588 0.096853064,15.3183111 0.00494563926,13.6522482 L1.59872116e-13,13.4724959 L1.59872116e-13,3.17456291 C1.59872116e-13,1.48520817 1.30376009,0.098653402 2.94481464,0.00503768031 L3.12188856,-7.10542736e-15 L19.5251702,-7.10542736e-15 Z M19.5251702,2.07257557 L3.12188856,2.07257557 C2.56972592,2.07257557 2.11125607,2.5021716 2.05258081,3.05445129 L2.0462384,3.17456291 L2.0462384,13.4724959 C2.0462384,14.0407359 2.4678974,14.5082146 3.00511362,14.5680196 L3.12188856,14.5744832 L19.5251702,14.5744832 C19.8155872,14.5744832 20.0857099,14.4592437 20.2897798,14.2480416 C20.4618713,14.0693937 20.5674685,13.8421966 20.594127,13.5966554 L20.6008204,13.4724959 L20.6008204,3.17456291 C20.6008204,2.56573429 20.1167731,2.07257557 19.5251702,2.07257557 Z M6.71669565,6.59238605 C7.52123063,6.59238605 8.17993118,7.21794778 8.250637,8.01345777 L8.25692075,8.15551332 L8.250637,8.29767728 C8.17993118,9.09376682 7.52123065,9.71932851 6.71669565,9.71932851 C5.91171644,9.71932851 5.25341079,9.09395456 5.18275022,8.29828808 L5.17647059,8.15620124 L5.18275022,8.014006 C5.25341079,7.21776004 5.91171646,6.59238605 6.71669565,6.59238605 Z M11.4888839,6.59238605 C12.2934189,6.59238605 12.9521194,7.21794778 13.0228252,8.01345777 L13.029109,8.15551332 L13.0228252,8.29767728 C12.9521194,9.09376682 12.2934189,9.71932851 11.4888839,9.71932851 C10.6843489,9.71932851 10.0256484,9.09376681 9.95494257,8.29825679 L9.94865882,8.15620124 L9.95494257,8.01403729 C10.0256484,7.21794779 10.6843489,6.59238605 11.4888839,6.59238605 Z M16.2611397,6.59238605 C17.0656746,6.59238605 17.7243751,7.21794779 17.795081,8.01345778 L17.8013647,8.15551332 L17.795081,8.29767728 C17.7243751,9.09376681 17.0656746,9.71932851 16.2611397,9.71932851 C15.4566047,9.71932851 14.7979041,9.09376682 14.7271983,8.29825679 L14.7209145,8.15620124 L14.7271983,8.01403729 C14.7979041,7.21794778 15.4566047,6.59238605 16.2611397,6.59238605 Z" fill="#575E68" fill-rule="nonzero"></path>
    </g>
</svg>
