<?xml version="1.0" encoding="UTF-8"?>
<svg width="23px" height="23px" viewBox="0 0 23 23" version="1.1" xmlns="http://www.w3.org/2000/svg" xmlns:xlink="http://www.w3.org/1999/xlink">
    <title>icon-elevators</title>
    <g id="icon-elevators" stroke="none" stroke-width="1" fill="none" fill-rule="evenodd">
        <path d="M20.4790888,0 C21.4765906,0 22.3156696,0.730351757 22.4739994,1.70514362 L22.4932655,1.86101864 L22.5,2.01692913 L22.5,20.4830709 C22.5,21.4814988 21.7688712,22.3206132 20.7941048,22.4752719 L20.6382407,22.4939271 L20.4834186,22.5 L2.01658138,22.5 C1.01898256,22.5 0.179510036,21.7693755 0.0247433199,20.7971239 L0.00607331791,20.6416738 L0,20.4874016 L0,2.01692913 C0,1.0185012 0.731128762,0.179386822 1.70589517,0.0247281107 L1.86175927,0.0060728739 L2.01658138,0 L20.4790888,0 Z M10.387,1.725 L2.01658138,1.72559055 C1.89737554,1.72559055 1.79306788,1.79805459 1.74985377,1.8912737 L1.73162609,1.9492821 L1.72534934,2.01692913 L1.72534934,20.4874016 C1.72534934,20.6066706 1.79780443,20.7110116 1.89098091,20.7542334 L1.94895949,20.7724626 L2.01658138,20.7787402 L10.387,20.778 L10.387,1.725 Z M20.4790888,1.72125984 L12.108,1.721 L12.108,20.774 L20.4834186,20.7744094 C20.6026245,20.7744094 20.7069321,20.7019454 20.7501462,20.6087263 L20.7683739,20.5507179 L20.77,20.525 L20.7703208,2.01259843 C20.7703208,1.87480523 20.6744035,1.75918427 20.5458136,1.72896181 L20.4790888,1.72125984 Z M6.05633734,7.55275591 C6.44485862,7.55275591 6.77814567,7.81087105 6.88474401,8.18835861 L6.90806708,8.29416516 L6.91684708,8.41338583 L6.916,12.007 L7.37927307,11.5437024 C7.65977239,11.2681578 8.07806329,11.2199375 8.40516069,11.4008301 L8.51050151,11.4696158 L8.59881817,11.5468878 C8.86291637,11.8158407 8.92099849,12.2164787 8.74880776,12.5540932 L8.68284896,12.66403 L8.59723298,12.7649483 L6.66287456,14.699629 C6.49724776,14.859372 6.28000691,14.9472441 6.05633734,14.9472441 C5.9123783,14.9472441 5.7717752,14.9127149 5.63759004,14.8385015 L5.53820238,14.7753201 L5.4467561,14.6966426 L3.5138565,12.7676791 C3.17995591,12.4276407 3.17995591,11.8851705 3.51704123,11.5480332 C3.78596271,11.2838618 4.18658312,11.2257612 4.52417336,11.3980056 L4.63410186,11.463985 L4.73456844,11.5491869 L5.195,12.007 L5.19582759,8.41338583 C5.19582759,8.01073891 5.47126279,7.67330381 5.84427081,7.57900774 L5.94828581,7.55945254 L6.05633734,7.55275591 Z M16.4393328,7.55275591 C16.5832918,7.55275591 16.7238949,7.58728508 16.8580801,7.6614985 L16.9574678,7.7246799 L17.0491125,7.80355566 L18.9818136,9.73665157 C19.3157142,10.07669 19.3157142,10.6191602 18.9786289,10.9562976 C18.7097074,11.2204689 18.309087,11.2785695 17.9714968,11.1063251 L17.8615683,11.0403457 L17.760669,10.9547121 L17.299,10.492 L17.2998426,14.0866142 C17.2998426,14.4892611 17.0244074,14.8266962 16.6513993,14.9209923 L16.5473843,14.9405475 L16.4393328,14.9472441 C16.0508115,14.9472441 15.7175245,14.6891289 15.6109261,14.3116414 L15.5876031,14.2058348 L15.5788231,14.0866142 L15.578,10.493 L15.1163971,10.9562976 C14.8358978,11.2318422 14.4176068,11.2800625 14.0905095,11.0991699 L13.9851686,11.0303842 L13.896852,10.9531122 C13.6327538,10.6841593 13.5746717,10.2835213 13.7468624,9.94590684 L13.8128212,9.83596999 L13.8984372,9.73505173 L15.8327956,7.80037095 C15.9984224,7.64062796 16.2156632,7.55275591 16.4393328,7.55275591 Z" fill="#575E68" fill-rule="nonzero"></path>
    </g>
</svg>
