<?xml version="1.0" encoding="UTF-8"?>
<svg width="14px" height="22px" viewBox="0 0 14 22" version="1.1" xmlns="http://www.w3.org/2000/svg" xmlns:xlink="http://www.w3.org/1999/xlink">
    <title>icon-chiller</title>
    <g id="icon-chiller" stroke="none" stroke-width="1" fill="none" fill-rule="evenodd">
        <path d="M12.3975582,2.48689958e-14 C13.2815719,2.48689958e-14 14,0.739287945 14,1.64896939 L14,1.64896939 L14,20.3510306 C14,21.2607121 13.2815719,22 12.3975582,22 L12.3975582,22 L1.60244182,22 C0.718428081,22 8.8817842e-15,21.2607121 8.8817842e-15,20.3510306 L8.8817842e-15,20.3510306 L8.8817842e-15,1.64896939 C8.8817842e-15,0.739287945 0.718428081,2.48689958e-14 1.60244182,2.48689958e-14 L1.60244182,2.48689958e-14 Z M12.3975582,9.47882573 L1.60244182,9.47882573 L1.60244182,20.3510306 L12.3975582,20.3510306 L12.3975582,9.47882573 Z M10.5600916,10.4874453 C11.0034338,10.4874453 11.3613125,10.8557152 11.3613125,11.31193 L11.3613125,11.31193 L11.3613125,14.3350406 C11.3613125,14.7912555 11.0034338,15.1595253 10.5600916,15.1595253 C10.1194201,15.1595253 9.75887066,14.7912555 9.75887066,14.3350406 L9.75887066,14.3350406 L9.75887066,11.31193 C9.75887066,10.8557152 10.1167493,10.4874453 10.5600916,10.4874453 Z M12.3975582,1.64896939 L1.60244182,1.64896939 L1.60244182,7.82985634 L12.3975582,7.82985634 L12.3975582,1.64896939 Z M10.5600916,3.84484697 C11.0034338,3.84484697 11.3613125,4.2131168 11.3613125,4.66933167 L11.3613125,4.66933167 L11.3613125,6.36502186 C11.3613125,6.82123673 11.0034338,7.18950656 10.5600916,7.18950656 C10.1194201,7.18950656 9.75887066,6.82123673 9.75887066,6.36502186 L9.75887066,6.36502186 L9.75887066,4.66933167 C9.75887066,4.2131168 10.1167493,3.84484697 10.5600916,3.84484697 Z" fill="#575E68" fill-rule="nonzero"></path>
    </g>
</svg>
