<?xml version="1.0" encoding="UTF-8"?>
<svg width="21px" height="23px" viewBox="0 0 21 23" version="1.1" xmlns="http://www.w3.org/2000/svg" xmlns:xlink="http://www.w3.org/1999/xlink">
    <title>icon-sustainability</title>
    <g id="icon-sustainability" stroke="none" stroke-width="1" fill="none" fill-rule="evenodd">
        <path d="M9.73689303,0.188664613 C10.0639709,-0.0628517764 10.5229857,-0.0628517764 10.849779,0.188446116 C13.186327,1.97987531 14.3431275,4.25984609 14.6774348,6.63265757 L14.7149652,6.92971392 L14.738,7.16402732 L15.0456421,7.06070718 C16.2198927,6.69168826 17.53933,6.56628717 18.9956161,6.68622244 L19.3961717,6.72501607 L19.8034757,6.77598288 C20.2521879,6.8384041 20.5869565,7.21957941 20.5869565,7.67037098 C20.5869565,12.8494566 16.6491292,17.173341 11.5347999,17.7840008 L11.206,17.8170273 L11.2061673,21.5968764 C11.2061673,22.0220111 10.9106655,22.3777602 10.5129735,22.4742236 L10.4021237,22.4939606 L10.2960568,22.5000273 C9.8296775,22.5000273 9.44469306,22.151946 9.39207477,21.7023252 L9.38594631,21.5968764 L9.385,17.8180273 L9.33743239,17.814073 C4.27274201,17.3504007 0.293285867,13.2539393 0.0154990645,8.23203154 L0.00389138221,7.95210175 L5.68434189e-14,7.67037092 C5.68434189e-14,7.21957932 0.334768629,6.83840394 0.783445924,6.77598768 C2.42720563,6.5470847 3.90873091,6.61104855 5.21827829,6.96548093 L5.54207662,7.06013906 L5.849,7.16302732 L5.87256376,6.92928661 C6.12812843,4.64494184 7.12770345,2.43114585 9.18733832,0.637597899 L9.46202401,0.406068863 L9.73689303,0.188664613 Z M1.94974498,8.47032831 L1.859,8.47702732 L1.86040683,8.48969041 C2.24086601,12.3463641 5.27668249,15.4496405 9.13522109,15.9733968 L9.386,16.0030273 L9.38796732,15.6164478 L9.38143386,15.5078636 L9.38358314,15.4193725 C9.35712987,14.7824622 9.23884304,13.9674836 8.97515651,13.099914 C8.57706714,11.7901382 7.92944365,10.6702271 6.98299227,9.85885236 C5.81728023,8.8591287 4.24712517,8.38609378 2.2976942,8.45292731 L1.94974498,8.47032831 Z M13.6046361,9.85851012 C12.6583889,10.6699449 12.0107946,11.7898631 11.612767,13.0994356 C11.348929,13.9675037 11.2302572,14.7859128 11.2048021,15.4031563 L11.2061442,15.4883805 L11.206,16.0020273 L11.4564862,15.9727916 C15.2254961,15.4588784 18.2084993,12.4840519 18.6966066,8.75123041 L18.727,8.47702732 L18.6369061,8.47031481 C16.5239232,8.33213172 14.8403362,8.79963543 13.6046361,9.85851012 Z M10.293,2.08202732 L10.2142197,2.15289339 C8.3291901,3.89079138 7.62432321,5.99886171 7.62416069,7.94349094 L7.626,8.07202732 L7.75473594,8.16278528 L7.97505588,8.32953306 L8.18157346,8.4994741 C8.99887918,9.20248461 9.63860068,10.0637566 10.1208208,11.0422807 L10.293,11.4140273 L10.3115818,11.3723825 C10.7640373,10.3578378 11.3744058,9.45880235 12.163847,8.71692374 L12.4060727,8.4991165 C12.5395208,8.38438539 12.6807628,8.2732637 12.8327204,8.16273822 L12.961,8.07202732 L12.963244,7.95373015 C12.9649459,6.00610706 12.2605277,3.89359558 10.3726642,2.15285792 L10.293,2.08202732 Z" fill="#575E68" fill-rule="nonzero"></path>
    </g>
</svg>
