<?xml version="1.0" encoding="UTF-8"?>
<svg width="14px" height="22px" viewBox="0 0 14 22" version="1.1" xmlns="http://www.w3.org/2000/svg" xmlns:xlink="http://www.w3.org/1999/xlink">
    <title>icon-electricity</title>
    <g id="icon-electricity" stroke="none" stroke-width="1" fill="none" fill-rule="evenodd">
        <path d="M0.0632417161,13.0151429 C0.167101637,13.2369783 0.381220432,13.3770576 0.615028312,13.3770576 L4.34709429,13.3770576 L4.34709429,21.3490743 C4.34709429,21.628712 4.51543597,21.8781467 4.7664718,21.9666726 C4.83095355,21.9901059 4.89740421,22 4.96237819,22 C5.15188563,22 5.33450189,21.9083497 5.45263639,21.7417127 L13.8756268,9.95787523 C14.0159115,9.76051457 14.0400306,9.49597838 13.9351863,9.27414291 C13.8313263,9.05334892 13.6176998,8.91326972 13.3843841,8.91326972 L9.1723967,8.91326972 L9.92107414,0.713689324 C9.94716218,0.423636849 9.78915727,0.151289551 9.5336914,0.0455792235 C9.27625662,-0.0622140664 8.98584262,0.0263118239 8.81946986,0.256999879 L0.124770105,12.332452 C-0.0155146223,12.5287712 -0.0396337509,12.7933074 0.0632417161,13.0151429 Z" id="Path" fill="#575E68" fill-rule="nonzero"></path>
    </g>
</svg>
