<?xml version="1.0" encoding="UTF-8"?>
<svg width="29px" height="22px" viewBox="0 0 29 22" version="1.1" xmlns="http://www.w3.org/2000/svg" xmlns:xlink="http://www.w3.org/1999/xlink">
    <title>icon-steam</title>
    <g id="icon-steam" stroke="none" stroke-width="1" fill="none" fill-rule="evenodd">
        <path d="M9.07936508,10.8253968 C9.35873016,10.7555556 9.6031746,10.8603175 9.77777778,11.0349206 C9.98730159,11.2793651 10.1269841,11.4539683 10.2666667,11.6984127 C10.3714286,11.9079365 10.5111111,12.152381 10.5809524,12.3968254 C10.7206349,12.8857143 10.8253968,13.4095238 10.7904762,13.9333333 C10.7555556,14.4571429 10.615873,14.9809524 10.4412698,15.4349206 C10.2666667,15.8539683 10.0920635,16.2380952 9.95238095,16.5873016 C9.63809524,17.3206349 9.42857143,17.9142857 9.39365079,18.5079365 C9.35873016,19.1015873 9.53333333,19.7650794 9.77777778,20.4634921 L9.77777778,20.4634921 L9.77777778,20.4984127 C9.91746032,20.8825397 9.70793651,21.3365079 9.32380952,21.4761905 C9.00952381,21.615873 8.6952381,21.5111111 8.48571429,21.2666667 C7.89206349,20.6031746 7.4031746,19.6603175 7.33333333,18.6126984 C7.2984127,18.0888889 7.36825397,17.5650794 7.47301587,17.0761905 C7.61269841,16.5873016 7.75238095,16.1333333 7.92698413,15.7492063 L7.92698413,15.7492063 L8.45079365,14.631746 C8.59047619,14.352381 8.66031746,14.0730159 8.76507937,13.7238095 C8.83492063,13.4444444 8.83492063,13.1650794 8.8,12.8507937 C8.8,12.7111111 8.76507937,12.5365079 8.73015873,12.3968254 C8.6952381,12.2571429 8.62539683,12.0825397 8.59047619,11.9777778 L8.59047619,11.9777778 L8.52063492,11.6984127 C8.45079365,11.3142857 8.6952381,10.9301587 9.07936508,10.8253968 Z M19.2412698,10.8253968 C19.5206349,10.7555556 19.7650794,10.8603175 19.9396825,11.0349206 C20.1492063,11.2793651 20.2888889,11.4539683 20.4285714,11.6984127 C20.5333333,11.9079365 20.6730159,12.152381 20.7428571,12.3968254 C20.8825397,12.8857143 20.9873016,13.4095238 20.952381,13.9333333 C20.9174603,14.4571429 20.7777778,14.9809524 20.6031746,15.4349206 C20.4285714,15.8539683 20.2539683,16.2380952 20.1142857,16.5873016 C19.8,17.3206349 19.5904762,17.9142857 19.5555556,18.5079365 C19.5206349,19.1015873 19.6952381,19.7650794 19.9396825,20.4634921 L19.9396825,20.4634921 L19.9396825,20.4984127 C20.0793651,20.8825397 19.8698413,21.3365079 19.4857143,21.4761905 C19.1714286,21.615873 18.8571429,21.5111111 18.647619,21.2666667 C18.0539683,20.6031746 17.5650794,19.6603175 17.4952381,18.6126984 C17.4603175,18.0888889 17.5301587,17.5650794 17.6349206,17.0761905 C17.7746032,16.5873016 17.9142857,16.1333333 18.0888889,15.7492063 L18.0888889,15.7492063 L18.6126984,14.631746 C18.752381,14.352381 18.8571429,14.0730159 18.9269841,13.7238095 C18.9968254,13.4444444 18.9968254,13.1650794 18.9619048,12.8507937 C18.9619048,12.7111111 18.9269841,12.5365079 18.8920635,12.3968254 C18.8571429,12.2571429 18.7873016,12.0825397 18.752381,11.9777778 L18.752381,11.9777778 L18.6825397,11.6984127 C18.6126984,11.3142857 18.8571429,10.9301587 19.2412698,10.8253968 Z M14.1079365,10.8603175 C14.3873016,10.7904762 14.631746,10.8952381 14.8063492,11.0698413 C15.015873,11.3142857 15.1555556,11.4888889 15.2952381,11.7333333 C15.4,11.9428571 15.5396825,12.1873016 15.6095238,12.431746 C15.7492063,12.9206349 15.8539683,13.4444444 15.8190476,13.968254 C15.784127,14.4920635 15.6444444,15.015873 15.4698413,15.4698413 C15.3301587,15.8539683 15.1555556,16.2380952 15.015873,16.5873016 C14.7015873,17.3206349 14.4920635,17.9142857 14.4571429,18.5079365 C14.4222222,19.1015873 14.5968254,19.7650794 14.8412698,20.4634921 L14.8412698,20.4634921 L14.8412698,20.4984127 C14.9809524,20.8825397 14.7714286,21.3365079 14.3873016,21.4761905 C14.0730159,21.5809524 13.7587302,21.4761905 13.5492063,21.231746 C12.9555556,20.568254 12.4666667,19.6603175 12.3968254,18.5777778 C12.3619048,18.0539683 12.431746,17.5301587 12.5365079,17.0412698 C12.6412698,16.5873016 12.815873,16.1333333 12.9904762,15.7492063 L12.9904762,15.7492063 L13.5142857,14.631746 C13.6888889,14.352381 13.7587302,14.0730159 13.7936508,13.7587302 C13.8634921,13.4793651 13.8634921,13.2 13.8285714,12.8857143 C13.8285714,12.7460317 13.7936508,12.5714286 13.7587302,12.431746 C13.7238095,12.2920635 13.6539683,12.0825397 13.6190476,12.0126984 L13.6190476,12.0126984 L13.5492063,11.7333333 C13.4793651,11.3492063 13.7238095,10.9301587 14.1079365,10.8603175 Z M14.1428571,6.21724894e-14 C17.3555556,6.21724894e-14 20.2539683,1.85079365 21.615873,4.71428571 L21.615873,4.71428571 L21.8952381,4.71428571 C25.4222222,4.71428571 28.2507937,7.57777778 28.3206349,11.0698413 C28.3206349,13.8634921 26.4349206,16.3777778 23.7111111,17.1460317 C23.6412698,17.1809524 23.5365079,17.1809524 23.431746,17.1809524 C22.9428571,17.1809524 22.5238095,16.8666667 22.384127,16.3777778 C22.2444444,15.784127 22.5587302,15.1904762 23.152381,15.015873 C24.9333333,14.5269841 26.1555556,12.8857143 26.1555556,11.0349206 C26.1555556,8.73015873 24.2698413,6.84444444 21.9650794,6.84444444 C21.6857143,6.84444444 21.4761905,6.87936508 21.231746,6.91428571 C20.6730159,7.01904762 20.1492063,6.73968254 19.9746032,6.21587302 C19.1015873,3.77142857 16.7968254,2.13015873 14.1777778,2.13015873 C11.5587302,2.13015873 9.25396825,3.77142857 8.38095238,6.21587302 C8.17142857,6.73968254 7.64761905,7.01904762 7.12380952,6.91428571 C6.87936508,6.87936508 6.66984127,6.84444444 6.39047619,6.84444444 C4.08571429,6.84444444 2.2,8.73015873 2.2,11.0349206 C2.2,12.8857143 3.42222222,14.5269841 5.2031746,15.015873 C5.7968254,15.1904762 6.14603175,15.784127 5.97142857,16.3777778 C5.7968254,16.9714286 5.2031746,17.3206349 4.60952381,17.1460317 C1.88571429,16.4126984 -1.77635684e-15,13.8984127 -1.77635684e-15,11.0698413 C-1.77635684e-15,7.57777778 2.86349206,4.71428571 6.35555556,4.71428571 L6.35555556,4.71428571 L6.63492063,4.71428571 C8.03174603,1.85079365 10.9301587,6.21724894e-14 14.1428571,6.21724894e-14 Z" id="Combined-Shape" fill="#575E68" fill-rule="nonzero"></path>
    </g>
</svg>
