<?xml version="1.0" encoding="UTF-8"?>
<svg width="25px" height="23px" viewBox="0 0 25 23" version="1.1" xmlns="http://www.w3.org/2000/svg" xmlns:xlink="http://www.w3.org/1999/xlink">
    <title>icon-controlroom</title>
    <g id="icon-controlroom" stroke="none" stroke-width="1" fill="none" fill-rule="evenodd">
        <path d="M12.2785217,-1.10134124e-13 C14.0108038,-1.10134124e-13 15.4265714,1.35608042 15.5221508,3.0645229 L15.5272939,3.24887291 L15.5272939,19.3951271 C15.5272939,21.189327 14.072671,22.644 12.2785217,22.644 C10.5462397,22.644 9.13047208,21.2879196 9.03489273,19.5794771 L9.02974954,19.3951271 L9.02974954,3.24887291 C9.02974954,1.454673 10.4843725,-1.10134124e-13 12.2785217,-1.10134124e-13 Z M21.3082713,5.4176675 C23.040735,5.41847896 24.4563335,6.77465423 24.5519009,8.4829627 L24.5570435,8.6672975 L24.5570435,19.3951271 L24.5519003,19.5794771 C24.4563209,21.2879196 23.0405533,22.644 21.3082713,22.644 C19.5762183,22.644 18.1616489,21.288141 18.0661519,19.5795 L18.0610132,19.3951271 L18.0610132,8.66654042 C18.0610132,6.87159459 19.5141108,5.4176675 21.3082713,5.4176675 Z M3.2487722,8.12271585 C4.98082518,8.12271585 6.39539457,9.47857488 6.49089156,11.1872159 L6.49603028,11.3715888 L6.49603028,19.39437 C6.49603028,21.1893158 5.04293265,22.6432429 3.2487722,22.6432429 C1.51649016,22.6432429 0.100722541,21.2871625 0.00514318338,19.57872 L-1.77635684e-15,19.39437 L-1.77635684e-15,11.3715888 C-1.77635684e-15,9.63925782 1.35603376,8.22344185 3.06442742,8.12785921 L3.2487722,8.12271585 Z M12.2785217,1.70542675 C11.4783757,1.70542675 10.8136333,2.32573796 10.7422426,3.10840582 L10.7358968,3.24811583 L10.7358968,19.39437 C10.7358968,20.2416237 11.4313083,20.9370591 12.2785217,20.9370591 C13.0786678,20.9370591 13.7434102,20.3167479 13.8148009,19.53408 L13.8211467,19.39437 L13.8211467,3.24811583 C13.8211467,2.40086215 13.1257352,1.70542675 12.2785217,1.70542675 Z M3.2487722,9.82889969 C2.44862616,9.82889969 1.78388375,10.4492109 1.71249307,11.2318788 L1.70614728,11.3715888 L1.70614728,19.39437 C1.70614728,20.2413426 2.40203462,20.9370591 3.2487722,20.9370591 C4.04785618,20.9370591 4.71219209,20.3164006 4.78354088,19.5340221 L4.789883,19.39437 L4.789883,11.3715888 C4.789883,10.5244429 4.09533701,9.82889969 3.2487722,9.82889969 Z M21.4479747,7.12944026 L21.3082713,7.12309426 L21.1687485,7.12868659 C20.433082,7.19591541 19.8406544,7.78901796 19.7735026,8.52537413 L19.7671605,8.66502626 L19.7671605,19.3936129 C19.7671605,20.2407588 20.4617065,20.936302 21.3082713,20.936302 C22.1084173,20.936302 22.7731597,20.3159908 22.8445504,19.5333229 L22.8508962,19.3936129 L22.8508962,8.66578334 C22.8508962,7.8655993 22.2306063,7.20083343 21.4479747,7.12944026 Z" fill="#575E68" fill-rule="nonzero"></path>
    </g>
</svg>
