<?xml version="1.0" encoding="UTF-8"?>
<svg width="23px" height="23px" viewBox="0 0 23 23" version="1.1" xmlns="http://www.w3.org/2000/svg" xmlns:xlink="http://www.w3.org/1999/xlink">
    <title>icon-power</title>
    <g id="icon-power" stroke="none" stroke-width="1" fill="none" fill-rule="evenodd">
        <path d="M19.2054783,7 C20.2175652,7 20.9996324,7.83168317 20.9996324,8.8019802 L20.9996324,11.4356436 C21.0348977,15.4734248 18.5290261,18.941029 14.994797,20.3398914 L14.994797,23 L8.01084571,23 L8.01084571,20.3241993 C4.49543928,18.9152303 2,15.458409 2,11.4356436 L2,8.8019802 C2,7.78547855 2.82807115,7 3.79415415,7 L19.2054783,7 Z M19.2054783,8.7 L3.79415415,8.7 C3.75795938,8.7 3.72309506,8.72547336 3.70792507,8.76212791 L3.7,8.8019802 L3.7,11.4356436 C3.7,14.5801641 5.57373006,17.3920397 8.38515451,18.6373624 L8.64329568,18.7462237 L9.71084571,19.1740959 L9.71,21.299 L13.294,21.299 L13.294797,19.1844395 L14.3691546,18.7592044 C17.2540029,17.6173696 19.2135431,14.8560182 19.2971481,11.7138504 L19.2996324,11.4356436 L19.2996324,8.8019802 C19.2996324,8.76013743 19.2742173,8.72369495 19.2408498,8.70808889 L19.2054783,8.7 Z M5.98507463,0 C6.52238806,0 6.97014925,0.474683544 6.97014925,1.0443038 L6.97014925,6 L5,6 L5,1.0443038 C5,0.474683544 5.44776119,0 5.98507463,0 Z M15.9850746,0 C16.5223881,0 16.9701493,0.474683544 16.9701493,1.0443038 L16.9701493,6 L15,6 L15,1.0443038 C15,0.474683544 15.4477612,0 15.9850746,0 Z" id="Combined-Shape" fill="#575E68" fill-rule="nonzero"></path>
    </g>
</svg>
