<?xml version="1.0" encoding="UTF-8"?>
<svg width="26px" height="22px" viewBox="0 0 26 22" version="1.1" xmlns="http://www.w3.org/2000/svg" xmlns:xlink="http://www.w3.org/1999/xlink">
    <title>icon-HVAC</title>
    <g id="icon-HVAC" stroke="none" stroke-width="1" fill="none" fill-rule="evenodd">
        <path d="M3.93172176,8.1357161 C6.39258851,3.87336986 11.8435831,2.41267371 16.1060554,4.87361324 C20.3686479,7.33462214 21.8291672,12.7853544 19.3681583,17.0479469 C16.9069742,21.3108427 11.4562686,22.7714614 7.19361308,20.3104161 C2.9309576,17.8493708 1.4705377,12.3986119 3.93172176,8.1357161 Z M15.2060554,6.43245896 C11.8045226,4.46858306 7.45438531,5.63428385 5.49056748,9.0357161 C3.52643235,12.4376979 4.69189705,16.7875887 8.09361308,18.7515704 C11.4953291,20.7155521 15.8451774,19.5499287 17.8093125,16.1479469 C19.7732652,12.7462811 18.6077211,8.3964116 15.2060554,6.43245896 Z M12.5481955,4.4941828e-13 C18.6150651,4.4941828e-13 24.4998285,4.08444265 25.5081712,10.2483387 C25.537305,10.4264303 25.5637136,10.6417072 25.5873972,10.8941694 C25.5911433,10.934086 25.5930945,10.9741508 25.5932466,11.0142426 C25.5960532,11.7542916 24.9984001,12.3564949 24.2583512,12.3593015 C23.4817225,12.3622468 22.8283522,11.778051 22.7447553,11.005929 C22.7267598,10.8397704 22.7071452,10.6947961 22.6859116,10.5710062 C21.8324933,5.59566873 16.8755909,1.64692072 11.6498342,1.64692072 C6.1654919,1.64692072 1.34075741,5.97118995 0.813522703,11.3056213 C0.797492998,11.467806 0.784223676,11.6894665 0.773714739,11.9706029 C0.765671471,12.1852369 0.590962444,12.3559927 0.376200355,12.359102 C0.370601993,12.3591831 0.365002513,12.3591373 0.359406221,12.3589648 C0.154687647,12.3526548 -0.00615420835,12.1815822 0.000180897385,11.9768644 C0.00901311463,11.6903204 0.0201865371,11.4641884 0.0337011648,11.2984686 C0.577267762,4.63311516 6.48132589,4.4941828e-13 12.5481955,4.4941828e-13 Z M14.1376035,7.57957238 C14.9660306,7.57957238 15.6376035,8.25114525 15.6376035,9.07957238 C15.6376035,9.9079995 14.9660306,10.5795724 14.1376035,10.5795724 C13.3091763,10.5795724 12.6376035,9.9079995 12.6376035,9.07957238 C12.6376035,8.25114525 13.3091763,7.57957238 14.1376035,7.57957238 Z" fill="#575E68" fill-rule="nonzero"></path>
    </g>
</svg>
