<?xml version="1.0" encoding="UTF-8"?>
<svg width="20px" height="22px" viewBox="0 0 20 22" version="1.1" xmlns="http://www.w3.org/2000/svg" xmlns:xlink="http://www.w3.org/1999/xlink">
    <title>icon-cooling</title>
    <g id="icon-cooling" stroke="none" stroke-width="1" fill="none" fill-rule="evenodd">
        <path d="M19.7356459,15.576 L17.4256067,14.234 L19.5562254,13.684 C19.8477837,13.64 19.937494,13.398 19.8926388,13.134 L19.6683632,12.254 C19.6235081,11.968 19.3768048,11.88 19.1076741,11.924 L15.2277053,12.914 L11.8635705,10.956 L15.2052777,9.02 L19.1076741,10.032 C19.3992324,10.12 19.6235081,9.988 19.6683632,9.702 L19.8926388,8.822 C19.9823491,8.536 19.8477837,8.316 19.5562254,8.272 L17.4031791,7.766 L19.7132183,6.424 C20.0047767,6.292 20.0496318,6.006 19.8926388,5.786 L19.42166,4.95 C19.2870946,4.664 18.9955362,4.62 18.7712606,4.774 L16.5060765,6.094 L17.044338,4.092 C17.1340483,3.806 16.9994829,3.586 16.7079246,3.542 L15.810822,3.322 C15.5192636,3.234 15.294988,3.366 15.2501328,3.652 L14.2857475,7.392 L10.9440403,9.328 L10.9440403,5.61 L13.7923411,2.816 C13.9717616,2.64 13.9717616,2.354 13.7923411,2.178 L13.1419417,1.518 C12.9625212,1.342 12.6709628,1.342 12.4915423,1.518 L10.9440403,3.036 L10.9440403,0.462 C10.9440403,0.176 10.7646198,0 10.4730614,0 L9.53110368,0 C9.23954533,0 9.06012481,0.176 9.06012481,0.462 L9.06012481,3.036 L7.5126228,1.518 C7.33320228,1.342 7.04164393,1.342 6.86222341,1.518 L6.21182402,2.156 C6.03240349,2.332 6.03240349,2.618 6.21182402,2.794 L9.06012481,5.588 L9.06012481,9.35 L5.71841758,7.414 L4.70917714,3.63 C4.66432201,3.344 4.41761879,3.256 4.14848801,3.3 L3.2513854,3.52 C2.95982705,3.564 2.87011679,3.806 2.91497192,4.07 L3.45323349,6.094 L1.25533209,4.84 C1.03105643,4.708 0.739498086,4.796 0.604932694,5.016 L0.0890986924,5.786 C-0.0454666994,6.006 0.0442435618,6.292 0.268519215,6.424 L2.55613087,7.766 L0.403084606,8.316 C0.111526258,8.36 0.0218159965,8.602 0.0666711271,8.866 L0.29094678,9.746 C0.33580191,10.032 0.582505129,10.12 0.851635912,10.076 L4.77645984,9.064 L8.07331193,10.978 L4.70917714,12.936 L0.896491043,11.946 C0.604932694,11.858 0.380657041,11.99 0.33580191,12.276 L0.111526258,13.156 C0.0218159965,13.442 0.156381388,13.662 0.447939737,13.706 L2.51127574,14.234 L0.268519215,15.554 C-0.0230391341,15.686 -0.0678942646,15.972 0.0890986924,16.192 L0.560077563,16.962 C0.694642955,17.248 0.986201304,17.292 1.21047696,17.138 L3.56537131,15.774 L3.00468218,17.908 C2.91497192,18.194 3.04953731,18.414 3.34109566,18.458 L4.23819827,18.678 C4.52975662,18.766 4.75403227,18.634 4.7988874,18.348 L5.78570027,14.476 L9.10497994,12.562 L9.10497994,16.368 L6.21182402,19.206 C6.03240349,19.382 6.03240349,19.668 6.21182402,19.844 L6.86222341,20.482 C7.04164393,20.658 7.33320228,20.658 7.5126228,20.482 L9.06012481,18.964 L9.06012481,21.538 C9.06012481,21.824 9.23954533,22 9.53110368,22 L10.4730614,22 C10.7646198,22 10.9440403,21.824 10.9440403,21.538 L10.9440403,18.986 L12.4915423,20.504 C12.6709628,20.68 12.9625212,20.68 13.1419417,20.504 L13.7923411,19.866 C13.9717616,19.69 13.9717616,19.404 13.7923411,19.228 L10.9440403,16.412 L10.9440403,12.628 L14.2184648,14.542 L15.2501328,18.392 C15.294988,18.678 15.5416912,18.766 15.810822,18.722 L16.7079246,18.502 C16.9994829,18.458 17.0891932,18.216 17.044338,17.952 L16.4836489,15.862 L18.8161157,17.182 C19.0403914,17.314 19.3319497,17.226 19.4665151,17.006 L19.937494,16.236 C20.0720594,15.994 19.9823491,15.708 19.7356459,15.576 Z" fill="#575E68" fill-rule="nonzero"></path>
    </g>
</svg>
