<?xml version="1.0" encoding="UTF-8"?>
<svg width="12px" height="22px" viewBox="0 0 12 22" version="1.1" xmlns="http://www.w3.org/2000/svg" xmlns:xlink="http://www.w3.org/1999/xlink">
    <title>icon-temperature</title>
    <g id="icon-temperature" stroke="none" stroke-width="1" fill="none" fill-rule="evenodd">
        <path d="M5.57974849,5.68434189e-14 C6.39724583,5.68434189e-14 7.16435549,0.326838699 7.73399637,0.896479579 C8.30402298,1.46650619 8.63305395,2.23616928 8.63305338,3.05430884 L8.63305338,3.05430884 L8.62297938,11.7430278 L8.77219115,11.841671 C10.1839497,12.8212354 11.0780923,14.4060346 11.1564611,16.1652213 L11.1564611,16.1652213 L11.162075,16.4176735 C11.162075,19.5012492 8.66712166,22 5.5849045,22 C2.50166959,22 2.84217094e-14,19.5002299 2.84217094e-14,16.4176735 C2.84217094e-14,14.567452 0.913058255,12.8739461 2.37882744,11.8450378 L2.37882744,11.8450378 L2.52621915,11.7451581 L2.52644303,3.05330546 C2.52644303,1.43286021 3.80297757,0.0984526359 5.40092465,0.00520470331 L5.40092465,0.00520470331 Z M5.57974849,1.79103373 C4.88844737,1.79103373 4.31747676,2.36200434 4.31747676,3.05330546 L4.31747676,3.05330546 L4.31747676,12.8001304 L3.83554019,13.0510698 C2.59252866,13.698293 1.79103373,14.9899776 1.79103373,16.4176735 C1.79103373,18.5107646 3.49052579,20.2089663 5.5849045,20.2089663 C7.67735074,20.2089663 9.37104125,18.5126978 9.37104125,16.4176735 C9.37104125,14.9813986 8.57480544,13.6987665 7.31811989,13.0533839 L7.31811989,13.0533839 L6.83109533,12.8032679 L6.84202022,3.05330546 C6.84202022,2.71864714 6.70668416,2.40207156 6.46754427,2.16293167 C6.22931328,1.92470068 5.91558907,1.79103373 5.57974849,1.79103373 Z M5.64264355,15.0268765 C6.37795707,15.0268765 6.97404646,15.6229659 6.97404646,16.3582794 C6.97404646,17.0935929 6.37795707,17.6896823 5.64264355,17.6896823 C4.90733002,17.6896823 4.31124063,17.0935929 4.31124063,16.3582794 C4.31124063,15.6229659 4.90733002,15.0268765 5.64264355,15.0268765 Z" fill="#575E68" fill-rule="nonzero"></path>
    </g>
</svg>
