<?xml version="1.0" encoding="UTF-8"?>
<svg width="8px" height="10px" viewBox="0 0 8 10" version="1.1" xmlns="http://www.w3.org/2000/svg" xmlns:xlink="http://www.w3.org/1999/xlink">
    <title>icon-humidity</title>
    <g id="icon-humidity" stroke="none" stroke-width="1" fill="none" fill-rule="evenodd">
        <path d="M3.64290473,0.144 C3.83211193,-0.048 4.16788807,-0.048 4.35709527,0.144 C4.73017988,0.525333333 8,3.92 8,5.99733333 C8,8.20533333 6.20652898,10 4,10 C1.79347102,10 -2.22044605e-15,8.20533333 -2.22044605e-15,5.99733333 C-2.22044605e-15,3.92 3.26982012,0.525333333 3.64290473,0.144 Z M4,1.22133333 C2.91805463,2.392 0.999333777,4.736 0.999333777,5.99733333 C0.999333777,7.65333333 2.34510326,9 4,9 C5.65489674,9 7.00066622,7.65333333 7.00066622,5.99733333 C7.00066622,4.736 5.07928048,2.392 4,1.22133333 Z M5.50033311,5.49866667 C5.77481679,5.49866667 5.99866755,5.72266667 5.99866755,6.00266667 C5.99866755,7.104 5.10326449,8.00266667 4,8.00266667 C3.72285143,8.00266667 3.49900067,7.77866667 3.49900067,7.50133333 C3.49900067,7.224 3.72285143,7 4,7 C4.55163225,7 4.99933378,6.552 4.99933378,6 C4.99933378,5.72266667 5.22318454,5.49866667 5.50033311,5.49866667 Z" fill="#575E68" fill-rule="nonzero"></path>
    </g>
</svg>
