<?xml version="1.0" encoding="UTF-8"?>
<svg width="18px" height="23px" viewBox="0 0 18 23" version="1.1" xmlns="http://www.w3.org/2000/svg" xmlns:xlink="http://www.w3.org/1999/xlink">
    <title>icon-gas</title>
    <g id="icon-gas" stroke="none" stroke-width="1" fill="none" fill-rule="evenodd">
        <path d="M9.52665895,-6.75015599e-14 C9.93632542,0.0238198094 10.2905062,0.307310636 10.3909249,0.709314481 C11.1527822,3.79032213 12.1453128,5.63104279 14.1773037,8.30105564 L15.102325,9.50234911 C15.1417911,9.55428347 15.1798255,9.60458491 15.2171351,9.65419564 C16.7431688,11.6833734 17.4010876,13.1435993 17.4010876,15.1098323 C17.4010876,19.0461589 14.4965261,22.3985002 10.9681042,22.3985002 C10.6262158,22.3985002 10.310373,22.2171361 10.1421119,21.9234267 C9.97306921,21.6283531 9.97970122,21.2662695 10.1594974,20.9772451 C10.6870365,20.1309372 10.8099666,19.5951302 10.6817163,19.1269912 C10.601454,18.8340018 10.3921322,18.5247787 9.99739716,18.1070646 L9.68528591,17.7923808 L8.99844714,17.1159639 C8.5808883,16.6845826 8.26361592,16.2855417 8.00539655,15.8357579 C7.91359242,15.6758522 7.83202251,15.5069728 7.76108333,15.330065 L7.6626972,15.0588001 L7.61108758,14.8823936 L7.50284039,15.0223123 C6.89678596,15.8313538 6.55313151,16.6256192 6.45826348,17.3737032 L6.43725306,17.5967115 L6.43103685,17.7985407 C6.43103685,18.9063809 6.87179717,19.9869653 7.49104792,20.6401373 L7.62638093,20.7734149 C7.91906157,21.0346022 8.01674756,21.4473641 7.87085168,21.8092825 C7.72552821,22.1697809 7.36924907,22.4037119 6.97899486,22.3985002 C5.04317463,22.3985002 3.2548615,21.4958547 1.95059115,19.9919386 C0.844850285,18.7169412 0.227926258,17.0349628 0.0482552168,15.1285987 C-0.420610632,10.1537903 2.52677319,4.81134723 8.91262436,0.17390914 C9.02299837,0.0958692837 9.14864309,0.0424319349 9.28084149,0.0165657908 L9.4149016,-6.75015599e-14 L9.52665895,-6.75015599e-14 Z M8.98508758,2.50539358 L8.86157789,2.60318426 C3.77982057,6.63445388 1.55438573,10.998498 1.94239593,15.0909547 C2.07517555,16.4914201 2.56858405,17.8262384 3.39809021,18.7827071 C3.82148379,19.2709093 4.32724234,19.6698311 4.893358,19.9659477 L4.93708758,19.9873936 L4.90426209,19.9025325 C4.69738624,19.3300668 4.57394889,18.7305031 4.54290304,18.1103203 L4.53512085,17.7985407 C4.53512085,15.8279747 5.66855347,13.7996381 7.85430588,11.9557566 C8.16097046,11.6943003 8.60253083,11.6539823 8.95274837,11.8551791 C9.30467191,12.057356 9.48642249,12.4587045 9.40282864,12.852672 C9.21549977,13.7250205 9.30612924,14.3136542 9.65342782,14.9185944 C9.8160873,15.201922 10.0428514,15.483794 10.3709871,15.8251676 L11.0457876,16.4946919 C11.9041625,17.3362233 12.2928,17.8506355 12.5088804,18.6393905 C12.6248377,19.0626935 12.6355622,19.5256205 12.5453708,20.022266 L12.5210876,20.1333936 L12.5510611,20.1208157 C14.2027021,19.3287721 15.4127446,17.4469642 15.5001118,15.3524063 L15.5051716,15.1098323 C15.5051716,13.9855144 15.2113359,13.0572476 14.5795751,12.0260766 L14.3645153,11.685937 C14.2202137,11.4662788 14.0626193,11.244879 13.8231165,10.9260683 L12.9603213,9.80135903 C11.1045937,7.40367324 9.93495511,5.42083233 9.05199848,2.71405012 L8.98508758,2.50539358 Z" fill="#575E68" fill-rule="nonzero"></path>
    </g>
</svg>
