<?xml version="1.0" encoding="UTF-8"?>
<svg width="13px" height="22px" viewBox="0 0 13 22" version="1.1" xmlns="http://www.w3.org/2000/svg" xmlns:xlink="http://www.w3.org/1999/xlink">
    <title>icon-battery</title>
    <g id="icon-battery" stroke="none" stroke-width="1" fill="none" fill-rule="evenodd">
        <path d="M11.9166667,3.3 L10.1850394,3.3 C9.94619423,3.3 9.75,3.10511811 9.75,2.85826772 L9.75,0.441732283 C9.75,0.19488189 9.55807087,0 9.31496063,0 L3.68503937,0 C3.44619423,0 3.25,0.19488189 3.25,0.441732283 L3.25,2.85826772 C3.25,3.1007874 3.05807087,3.3 2.81496063,3.3 L1.08333333,3.3 C0.486220472,3.3 0,3.79370079 0,4.4 L0,20.9 C0,21.5062992 0.486220472,22 1.08333333,22 L11.9166667,22 C12.5137795,22 13,21.5062992 13,20.9 L13,4.4 C13,3.79370079 12.5137795,3.3 11.9166667,3.3 Z M9.6988189,11.6582677 L6.20570866,18.4531496 C5.98818898,18.8429134 5.40387139,18.6870079 5.40387139,18.2366142 L5.40387139,13.6374016 C5.40387139,13.3948819 5.21194226,13.2 4.97309711,13.2 L3.68930446,13.2 C3.36089239,13.2 3.15190289,12.8362205 3.31824147,12.5417323 L6.75164042,5.6992126 C6.9691601,5.30944882 7.55347769,5.46535433 7.55347769,5.91574803 L7.55347769,10.5625984 C7.55347769,10.8051181 7.74540682,11 7.98425197,11 L9.332021,11 C9.65616798,11.0043307 9.86515748,11.3681102 9.6988189,11.6582677 Z" fill="#575E68" fill-rule="nonzero"></path>
    </g>
</svg>
