<?xml version="1.0" encoding="UTF-8"?>
<svg width="16px" height="22px" viewBox="0 0 16 22" version="1.1" xmlns="http://www.w3.org/2000/svg" xmlns:xlink="http://www.w3.org/1999/xlink">
    <title>icon-water</title>
    <g id="icon-water" stroke="none" stroke-width="1" fill="none" fill-rule="evenodd">
        <path d="M8.01364777,1.45661261e-12 C8.5625059,0.00161219987 9.0849997,0.239162293 9.45161074,0.653765148 L9.72619569,0.967549995 C12.5684841,4.25491075 19.8245811,13.8583843 13.4584346,19.658566 C11.9274197,21.1135432 9.92308019,21.9468041 7.82641301,22 C7.35875964,22.001123 6.89214147,21.9552879 6.43338639,21.8631229 C2.69369487,21.0905517 0.00513409662,17.7548068 0,13.8811065 C0,9.00067367 4.59848573,3.02556429 6.57568481,0.68417283 C6.89965842,0.299427518 7.35649565,0.0590074363 7.84848385,0.00940357818 L8.01364777,1.45661261e-12 Z M8.017,1.7 L7.96689105,1.71339083 C7.93300404,1.72654353 7.90130338,1.74919308 7.87452909,1.78098801 C4.35157795,5.95285305 1.69999851,10.5022884 1.69999851,13.8788534 C1.70407049,16.9511827 3.83052112,19.5895077 6.76823002,20.1964256 C7.11536732,20.2661664 7.46841459,20.3008497 7.78331205,20.3005278 C9.45829662,20.2580452 11.0609237,19.591783 12.3135108,18.4019238 C16.4636367,14.6207535 13.7712328,8.09330256 8.17808334,1.77987703 C8.14751998,1.74531272 8.1101024,1.72141135 8.07008898,1.70926335 L8.017,1.7 Z M4.68918338,13.6755731 C4.97460416,15.5578315 6.42969512,17.0347856 8.2840908,17.3244949 C8.6286599,17.3771722 8.88342144,17.6777824 8.88324203,18.0314735 L8.89823309,18.077085 C8.89907678,18.2911342 8.81098738,18.4956309 8.65559372,18.6403359 C8.50020007,18.7850409 8.2919037,18.8565434 8.08187725,18.837277 C5.55590635,18.4663711 3.56834828,16.4582179 3.19130529,13.8960288 C3.13132929,13.4761863 3.41802057,13.0864861 3.83164818,13.0256089 C4.24527579,12.9647318 4.62920738,13.2557306 4.68918338,13.6755731 Z" id="Combined-Shape" fill="#575E68" fill-rule="nonzero"></path>
    </g>
</svg>