<?xml version="1.0" encoding="UTF-8"?>
<svg width="22px" height="22px" viewBox="0 0 22 22" version="1.1" xmlns="http://www.w3.org/2000/svg" xmlns:xlink="http://www.w3.org/1999/xlink">
    <title>icon-calendar</title>
    <g id="icon-calendar" stroke="none" stroke-width="1" fill="none" fill-rule="evenodd">
        <path d="M3.29337712,2.87628697 C3.80130657,2.87628697 4.21508293,3.28221924 4.21508293,3.78360143 C4.21508293,4.20127094 3.92630036,4.55786734 3.52047815,4.6618138 L3.40702658,4.68375485 L3.29337712,4.69091588 L3.01589681,4.69091588 C2.45928183,4.69091588 1.98290862,5.0805301 1.86968526,5.59301646 L1.85013201,5.7133423 L1.84341163,5.83809213 L1.84341163,19.0381948 C1.84341163,19.5814479 2.24026919,20.0482818 2.76501347,20.1595321 L2.88825606,20.1787661 L3.01589681,20.1853711 L18.9841032,20.1853711 C19.5407182,20.1853711 20.0170914,19.7957569 20.1303147,19.2832705 L20.149868,19.1629447 L20.1565884,19.0381948 L20.1565884,5.83809213 C20.1565884,5.29483906 19.7597308,4.82800518 19.2349865,4.71675484 L19.1117439,4.69752088 L18.9841032,4.69091588 L18.7066229,4.69091588 C18.1986934,4.69091588 17.7849171,4.28498362 17.7849171,3.78360143 C17.7849171,3.36593192 18.0736996,3.00933552 18.4795219,2.90538906 L18.5929734,2.88344801 L18.7066229,2.87628697 L18.9841032,2.87628697 C20.5093961,2.87628697 21.7884797,4.00341161 21.97652,5.47122592 L21.9942814,5.65642025 L22,5.83809213 L22,19.0381948 C22,20.537498 20.8508979,21.7926559 19.3574119,21.9769896 L19.1689907,21.9943943 L18.9841032,22 L3.01589681,22 C1.49060389,22 0.21152028,20.8728754 0.023480047,19.4050611 L0.00571864893,19.2198667 L0,19.0381948 L0,5.83809213 C0,4.33878893 1.14910212,3.08363112 2.6425881,2.89929739 L2.8310093,2.88189268 L3.01589681,2.87628697 L3.29337712,2.87628697 Z M6.43204588,16.4872878 C6.93997533,16.4872878 7.3537517,16.8932201 7.3537517,17.3946023 C7.3537517,17.8122718 7.06496912,18.1688682 6.65914691,18.2728147 L6.54569534,18.2947557 L6.43204588,18.3019167 L4.71480926,18.3019167 C4.20687981,18.3019167 3.79310345,17.8959845 3.79310345,17.3946023 C3.79310345,16.9769328 4.08188602,16.6203364 4.48770824,16.5163899 L4.6011598,16.4944489 L4.71480926,16.4872878 L6.43204588,16.4872878 Z M11.8769425,16.4872878 C12.3816712,16.4872878 12.7724709,16.8898486 12.7724709,17.3946023 C12.7724709,17.8122718 12.4836883,18.1688682 12.0778661,18.2728147 L11.9644146,18.2947557 L11.8507651,18.3019167 L10.1335285,18.3019167 C9.62559903,18.3019167 9.21182266,17.8959845 9.21182266,17.3946023 C9.21182266,16.9769328 9.50060523,16.6203364 9.90642745,16.5163899 L10.019879,16.4944489 L10.1335285,16.4872878 L11.8769425,16.4872878 Z M17.2694843,16.4872878 C17.7774138,16.4872878 18.1911901,16.8932201 18.1911901,17.3946023 C18.1911901,17.8122718 17.9024075,18.1688682 17.4965853,18.2728147 L17.3831338,18.2947557 L17.2694843,18.3019167 L15.5522477,18.3019167 C15.0443182,18.3019167 14.6305419,17.8959845 14.6305419,17.3946023 C14.6305419,16.9769328 14.9193244,16.6203364 15.3251467,16.5163899 L15.4385982,16.4944489 L15.5522477,16.4872878 L17.2694843,16.4872878 Z M6.43204588,13.0203348 C6.93997533,13.0203348 7.3537517,13.4262671 7.3537517,13.9276492 C7.3537517,14.3453187 7.06496912,14.7019152 6.65914691,14.8058616 L6.54569534,14.8278027 L6.43204588,14.8349637 L4.71480926,14.8349637 C4.20687981,14.8349637 3.79310345,14.4290314 3.79310345,13.9276492 C3.79310345,13.5099797 4.08188602,13.1533833 4.48770824,13.0494369 L4.6011598,13.0274958 L4.71480926,13.0203348 L6.43204588,13.0203348 Z M11.8769425,13.0203348 C12.3816712,13.0203348 12.7724709,13.4228956 12.7724709,13.9276492 C12.7724709,14.3453187 12.4836883,14.7019152 12.0778661,14.8058616 L11.9644146,14.8278027 L11.8507651,14.8349637 L10.1335285,14.8349637 C9.62559903,14.8349637 9.21182266,14.4290314 9.21182266,13.9276492 C9.21182266,13.5099797 9.50060523,13.1533833 9.90642745,13.0494369 L10.019879,13.0274958 L10.1335285,13.0203348 L11.8769425,13.0203348 Z M17.2694843,13.0203348 C17.7774138,13.0203348 18.1911901,13.4262671 18.1911901,13.9276492 C18.1911901,14.3453187 17.9024075,14.7019152 17.4965853,14.8058616 L17.3831338,14.8278027 L17.2694843,14.8349637 L15.5522477,14.8349637 C15.0443182,14.8349637 14.6305419,14.4290314 14.6305419,13.9276492 C14.6305419,13.5099797 14.9193244,13.1533833 15.3251467,13.0494369 L15.4385982,13.0274958 L15.5522477,13.0203348 L17.2694843,13.0203348 Z M6.43204588,9.55338174 C6.93997533,9.55338174 7.3537517,9.959314 7.3537517,10.4606962 C7.3537517,10.8783657 7.06496912,11.2349621 6.65914691,11.3389086 L6.54569534,11.3608496 L6.43204588,11.3680106 L4.71480926,11.3680106 C4.20687981,11.3680106 3.79310345,10.9620784 3.79310345,10.4606962 C3.79310345,10.0430267 4.08188602,9.68643028 4.48770824,9.58248382 L4.6011598,9.56054277 L4.71480926,9.55338174 L6.43204588,9.55338174 Z M11.8899836,9.55338174 C12.3960811,9.55338174 12.7881773,9.95581462 12.7881773,10.4606962 C12.7881773,10.8784957 12.498408,11.2350326 12.091458,11.3389255 L11.977696,11.3608522 L11.863711,11.3680106 L10.136289,11.3680106 C9.62696547,11.3680106 9.21182266,10.9622135 9.21182266,10.4606962 C9.21182266,10.0428966 9.501592,9.68635974 9.90854198,9.58246693 L10.022304,9.56054021 L10.136289,9.55338174 L11.8899836,9.55338174 Z M17.2694843,9.55338174 C17.7774138,9.55338174 18.1911901,9.959314 18.1911901,10.4606962 C18.1911901,10.8783657 17.9024075,11.2349621 17.4965853,11.3389086 L17.3831338,11.3608496 L17.2694843,11.3680106 L15.5522477,11.3680106 C15.0443182,11.3680106 14.6305419,10.9620784 14.6305419,10.4606962 C14.6305419,10.0430267 14.9193244,9.68643028 15.3251467,9.58248382 L15.4385982,9.56054277 L15.5522477,9.55338174 L17.2694843,9.55338174 Z M6.70690845,0 C7.12984432,0 7.4926944,0.282959626 7.59885318,0.683245968 L7.62129361,0.795199455 L7.62861426,0.907314454 L7.62861426,5.55559965 C7.62861426,6.05698184 7.2148379,6.46291411 6.70690845,6.46291411 C6.28397258,6.46291411 5.9211225,6.17995448 5.81496373,5.77966814 L5.79252329,5.66771465 L5.78520264,5.55559965 L5.78520264,0.907314454 C5.78520264,0.405932263 6.198979,0 6.70690845,0 Z M15.2930915,0 C15.7160274,0 16.0788775,0.282959626 16.1850363,0.683245968 L16.2074767,0.795199455 L16.2147974,0.907314454 L16.2147974,5.55559965 C16.2147974,6.05698184 15.801021,6.46291411 15.2930915,6.46291411 C14.8701557,6.46291411 14.5073056,6.17995448 14.4011468,5.77966814 L14.3787064,5.66771465 L14.3713857,5.55559965 L14.3713857,0.907314454 C14.3713857,0.405932263 14.7851621,0 15.2930915,0 Z M11.8795602,2.87628697 C12.3874897,2.87628697 12.801266,3.28221924 12.801266,3.78360143 C12.801266,4.20519063 12.508715,4.55948259 12.0897339,4.66216517 L11.9724566,4.68379279 L11.8533828,4.69091588 L10.1204398,4.69091588 C9.61251033,4.69091588 9.19873397,4.28498362 9.19873397,3.78360143 C9.19873397,3.36593192 9.48751654,3.00933552 9.89333876,2.90538906 L10.0067903,2.88344801 L10.1204398,2.87628697 L11.8795602,2.87628697 Z" fill="#575E68" fill-rule="nonzero"></path>
    </g>
</svg>
