<?xml version="1.0" encoding="UTF-8"?>
<svg width="22px" height="22px" viewBox="0 0 22 22" version="1.1" xmlns="http://www.w3.org/2000/svg" xmlns:xlink="http://www.w3.org/1999/xlink">
    <title>icon-solar</title>
    <g id="icon-solar" stroke="none" stroke-width="1" fill="none" fill-rule="evenodd">
        <path d="M9.90346653,1.23975081 C9.90346653,-0.171266744 11.9685273,-0.218300663 12.106198,1.09864906 L12.1134008,1.23975081 L12.113,3.364 C13.2891505,3.53495508 14.3938259,3.97053949 15.358434,4.63155489 L15.62,4.819 L17.12431,3.31576288 C17.5262123,2.91386063 18.0710703,2.89027025 18.4894893,3.16668307 L18.5913041,3.24199103 L18.6803114,3.32287489 C19.0819855,3.72454901 19.1464853,4.32545959 18.7741989,4.78289687 L18.6877015,4.87859822 L17.183,6.383 C17.8873544,7.32455201 18.3674458,8.40961802 18.584765,9.56637247 L18.638,9.889 L20.7636786,9.8895424 C22.1260404,9.8895424 22.2168645,11.8150643 21.036151,12.0718005 L20.9047804,12.0927586 L20.7636786,12.0999629 L18.638,12.099 C18.4679104,13.2753032 18.0324246,14.3802423 17.3717311,15.3449117 L17.183,15.606 L18.6876666,17.1108722 C19.6616845,18.0848901 18.3250051,19.5317021 17.3034585,18.8245811 L17.2115318,18.7542905 L17.12431,18.6742287 L15.62,17.17 C14.68111,17.874116 13.5957331,18.354133 12.4374404,18.5713775 L12.113,18.625 L12.1134008,20.7502408 C12.1134008,22.1126026 10.1883025,22.2034267 9.93162273,21.0227132 L9.91066928,20.8913426 L9.90346653,20.7502408 L9.903,18.625 C8.72708084,18.455028 7.62169495,18.0195898 6.65728978,17.3591069 L6.394,17.171 L4.89207098,18.6742287 C4.49030304,19.0759967 3.94553333,19.0993833 3.52721248,18.8228677 L3.42542255,18.7475363 L3.33643876,18.6666349 C2.934866,18.2648793 2.87040114,17.6640147 3.24270074,17.2065749 L3.32920072,17.1108722 L4.831,15.608 C4.12880719,14.6684166 3.64923964,13.5828009 3.43176657,12.4242644 L3.377,12.099 L1.25318865,12.0999629 C-0.109173133,12.0999629 -0.199997251,10.174441 0.980716292,9.9177048 L1.11208689,9.89674674 L1.25318865,9.8895424 L3.377,9.889 C3.5483468,8.71280819 3.98392733,7.6074954 4.64439823,6.64351314 L4.832,6.382 L3.32920072,4.87863315 C2.92747052,4.47690295 2.90396655,3.93209829 3.18031697,3.51371105 L3.25560619,3.4119039 L3.33646692,3.32290307 C3.73813777,2.92114076 4.33901591,2.8567225 4.79635641,3.22919014 L4.89203604,3.31572795 L6.395,4.818 C7.3374666,4.11595753 8.42262149,3.63627794 9.57981918,3.41851771 L9.903,3.364 L9.90346653,1.23975081 Z M11.429001,5.51772606 L11.2255799,5.51189775 L10.996232,5.51469398 C8.03656535,5.4114519 5.52508021,8.01914514 5.52508021,11.0551878 C5.55699202,14.0328057 7.97139279,16.4468965 10.9453811,16.4783291 C14.0046261,16.4783291 16.4595923,14.0912547 16.491767,11.0589386 C16.491767,8.16156802 14.1978657,5.65553338 11.429001,5.51772606 Z" id="Combined-Shape" fill="#575E68" fill-rule="nonzero"></path>
    </g>
</svg>
