<?xml version="1.0" encoding="UTF-8"?>
<svg width="20px" height="19px" viewBox="0 0 20 19" version="1.1" xmlns="http://www.w3.org/2000/svg" xmlns:xlink="http://www.w3.org/1999/xlink">
    <title>icon-map</title>
    <g id="overlays" stroke="none" stroke-width="1" fill="none" fill-rule="evenodd">
        <g id="buildings-menu-1" transform="translate(-93.000000, -32.000000)" fill="#575E68" fill-rule="nonzero">
            <g id="Combined-Shape" transform="translate(93.000000, 32.000000)">
                <path d="M7.36169576,0.138757139 L13.0175192,3.53323181 L18.5416974,0.493607346 C19.0249028,0.227728347 19.6255639,0.416264049 19.8833115,0.914713623 C19.9599246,1.06287318 20,1.22821049 20,1.39613014 L20,14.7190348 C20,15.098372 19.7964938,15.4465593 19.4712837,15.6236377 L13.4877297,18.8817103 C13.194034,19.041629 12.8422312,19.0392688 12.5505767,18.8754232 L6.87446033,15.6866948 L1.45137396,18.6141449 C0.966146799,18.8760766 0.366948811,18.6826504 0.113027798,18.1821153 C0.0387812769,18.0357588 -2.13162821e-14,17.8730309 -2.13162821e-14,17.7078459 L-2.13162821e-14,4.38601466 C-2.13162821e-14,4.01445605 0.195320722,3.67211632 0.510225031,3.49174037 L6.38163754,0.128618355 C6.68722323,-0.0464199276 7.05957463,-0.0425679212 7.36169576,0.138757139 Z M7.714,2.361 L7.714,14.178 L12.21,16.704 L12.21,5.06 L7.714,2.361 Z M18.3140321,2.58945178 L13.895,5.02 L13.895,16.693 L18.3140321,14.2872514 L18.3140321,2.58945178 Z M6.028,2.318 L1.68573581,4.80708292 L1.68573581,16.5243175 L6.028,14.18 L6.028,2.318 Z"></path>
            </g>
        </g>
    </g>
</svg>
