<?xml version="1.0" encoding="UTF-8"?>
<svg width="16px" height="22px" viewBox="0 0 16 22" version="1.1" xmlns="http://www.w3.org/2000/svg" xmlns:xlink="http://www.w3.org/1999/xlink">
    <title>icon-oil</title>
    <g id="icon-oil" stroke="none" stroke-width="1" fill="none" fill-rule="evenodd">
        <path d="M8.01364777,2.55795385e-13 C8.5625059,0.00161219987 9.0849997,0.239162293 9.45161074,0.653765148 C12.0579186,3.59570832 20.0416088,13.6606508 13.4584346,19.658566 C11.9274197,21.1135432 9.92308019,21.9468041 7.82641301,21.9999791 C7.35875964,22.001123 6.89214147,21.9552879 6.43338639,21.8631229 C2.69369487,21.0905517 0.00513409662,17.7548068 -2.62012634e-13,13.8811065 C-2.62012634e-13,9.00067367 4.59848573,3.02556429 6.57568481,0.68417283 C6.89965842,0.299427518 7.35649565,0.0590074363 7.84848385,0.00940357818 L8.01364777,2.55795385e-13 Z M3.82568821,13.4255593 L3.72307026,13.4335769 C3.30944265,13.494454 3.02275137,13.8841543 3.08272738,14.3039967 C3.45977036,16.8661859 5.44732844,18.8743391 7.97329934,19.245245 C8.18332579,19.2645113 8.39162215,19.1930089 8.54701581,19.0483039 C8.70240946,18.9035988 8.79049886,18.6991021 8.78965517,18.4850529 L8.78965517,18.4850529 L8.77466412,18.4394414 C8.77484353,18.0857503 8.52008198,17.7851402 8.17551288,17.7324628 C6.3211172,17.4427535 4.86602624,15.9657995 4.58060547,14.0835411 C4.52062946,13.6636986 4.13669787,13.3726997 3.72307026,13.4335769 Z" id="Combined-Shape" fill="#575E68" fill-rule="nonzero"></path>
    </g>
</svg>