<?xml version="1.0" encoding="UTF-8"?>
<svg width="21px" height="22px" viewBox="0 0 21 22" version="1.1" xmlns="http://www.w3.org/2000/svg" xmlns:xlink="http://www.w3.org/1999/xlink">
    <title>icon-building</title>
    <g id="icon-building" stroke="none" stroke-width="1" fill="none" fill-rule="evenodd">
        <path d="M6.37610619,2.25597319e-13 C6.85996018,2.25597319e-13 7.18589578,0.392252212 7.18589578,0.876106195 L7.18589578,0.876106195 L7.18589578,3.21725664 L7.9920354,3.21725664 C9.01187168,3.21725664 9.84159292,4.04697788 9.84159292,5.06681416 L9.84159292,5.06681416 L9.84159292,7.06720796 C10.6745752,7.24695575 11.3007965,7.9890177 11.3007965,8.87495575 L11.3007965,8.87495575 L11.3007965,9.26433628 L16.7521239,9.26433628 C17.7719602,9.26433628 18.6016814,10.0940575 18.6016814,11.1138938 L18.6016814,11.1138938 L18.6016814,20.1961947 L19.8097345,20.1961947 C20.2935885,20.1961947 20.6858407,20.4587881 20.6858407,20.9426421 C20.6858407,21.426496 20.2935885,21.7411986 19.8097345,21.7411986 L19.8097345,21.7411986 L0.876106195,21.7411986 C0.392252212,21.7411986 4.26325641e-14,21.426496 4.26325641e-14,20.9426421 C4.26325641e-14,20.4587881 0.392252212,20.1961947 0.876106195,20.1961947 L0.876106195,20.1961947 L1.45141593,20.1961947 L1.45141593,8.87495575 C1.45141593,7.9890177 2.07763717,7.24690708 2.91061947,7.06720796 L2.91061947,7.06720796 L2.91061947,5.06681416 C2.91061947,4.04697788 3.74034071,3.21725664 4.76017699,3.21725664 L4.76017699,3.21725664 L5.57261814,3.21725664 L5.57261814,0.876106195 C5.57261814,0.392252212 5.89225221,2.25597319e-13 6.37610619,2.25597319e-13 Z M17.0042267,10.7623777 L11.3007965,10.7623777 L11.3007965,20.1961947 L17.1015718,20.1961947 L17.1015718,10.8597228 C17.1015718,10.8060369 17.0579126,10.7623777 17.0042267,10.7623777 L17.0042267,10.7623777 Z M9.64787614,8.59792416 L3.13538724,8.59792416 C3.0817014,8.59792416 3.03804211,8.64158345 3.03804211,8.6952693 L3.03804211,8.6952693 L3.03804211,20.1961947 L9.74522127,20.1961947 L9.74522127,8.6952693 C9.74522127,8.64158345 9.70156198,8.59792416 9.64787614,8.59792416 L9.64787614,8.59792416 Z M7.21424779,16.5869292 C7.69810177,16.5869292 8.09035398,16.9227208 8.09035398,17.3369292 C8.09035398,17.7511375 7.69810177,18.0869292 7.21424779,18.0869292 L7.21424779,18.0869292 L5.5379646,18.0869292 C5.05411062,18.0869292 4.66185841,17.7511375 4.66185841,17.3369292 C4.66185841,16.9227208 5.05411062,16.5869292 5.5379646,16.5869292 L5.5379646,16.5869292 Z M15.1965487,16.5869292 C15.6804027,16.5869292 16.0726549,16.9227208 16.0726549,17.3369292 C16.0726549,17.7511375 15.6804027,18.0869292 15.1965487,18.0869292 L15.1965487,18.0869292 L13.1260566,18.0869292 C12.6422026,18.0869292 12.2499504,17.7511375 12.2499504,17.3369292 C12.2499504,16.9227208 12.6422026,16.5869292 13.1260566,16.5869292 L13.1260566,16.5869292 Z M7.21424779,13.4185095 C7.69810177,13.4185095 8.09035398,13.7543012 8.09035398,14.1685095 C8.09035398,14.5827179 7.69810177,14.9185095 7.21424779,14.9185095 L7.21424779,14.9185095 L5.5379646,14.9185095 C5.05411062,14.9185095 4.66185841,14.5827179 4.66185841,14.1685095 C4.66185841,13.7543012 5.05411062,13.4185095 5.5379646,13.4185095 L5.5379646,13.4185095 Z M15.1965487,13.4185095 C15.6804027,13.4185095 16.0726549,13.7543012 16.0726549,14.1685095 C16.0726549,14.5827179 15.6804027,14.9185095 15.1965487,14.9185095 L15.1965487,14.9185095 L13.1415324,14.9185095 C12.6576785,14.9185095 12.2654262,14.5827179 12.2654262,14.1685095 C12.2654262,13.7543012 12.6576785,13.4185095 13.1415324,13.4185095 L13.1415324,13.4185095 Z M7.21424779,10.34966 C7.69810177,10.34966 8.09035398,10.6854516 8.09035398,11.09966 C8.09035398,11.5138683 7.69810177,11.84966 7.21424779,11.84966 L7.21424779,11.84966 L5.5379646,11.84966 C5.05411062,11.84966 4.66185841,11.5138683 4.66185841,11.09966 C4.66185841,10.6854516 5.05411062,10.34966 5.5379646,10.34966 L5.5379646,10.34966 Z M8.15494272,4.76310223 L4.56211588,4.76310223 C4.50843004,4.76310223 4.46477074,4.80676152 4.46477074,4.86044736 L4.46477074,4.86044736 L4.46477074,7.02539823 L8.25228785,7.02539823 L8.25228785,4.86044736 C8.25228785,4.80676152 8.20862856,4.76310223 8.15494272,4.76310223 L8.15494272,4.76310223 Z" fill="#575E68" fill-rule="nonzero"></path>
    </g>
</svg>
