<?xml version="1.0" encoding="UTF-8"?>
<svg width="24px" height="22px" viewBox="0 0 24 22" version="1.1" xmlns="http://www.w3.org/2000/svg" xmlns:xlink="http://www.w3.org/1999/xlink">
    <title>icon-warning</title>
    <g id="icon-warning" stroke="none" stroke-width="1" fill="none" fill-rule="evenodd">
        <path d="M11.9910352,3.55271368e-14 C13.3293495,3.55271368e-14 14.5663003,0.72125336 15.2370828,1.89273722 L23.4932038,16.306738 C24.1667828,17.4798871 24.1690698,18.9277731 23.4992002,20.1030936 C22.8293306,21.2784141 21.5894963,22.0018681 20.2483562,22 L3.74811433,22 C2.40823367,21.9988543 1.17068159,21.274877 0.501441467,20.100661 C-0.167798656,18.9264449 -0.1671029,17.4802945 0.503266759,16.306738 L8.74498758,1.89273722 C9.41577008,0.72125336 10.6527208,3.55271368e-14 11.9910352,3.55271368e-14 Z M11.9994353,1.89516504 C11.3303631,1.89772142 10.7128237,2.25904356 10.3770115,2.84444486 L2.12569054,17.2584456 C1.79032015,17.8450482 1.78990617,18.5681082 2.12460462,19.1551033 C2.45930306,19.7420985 3.07823128,20.1038573 3.74811433,20.1038573 L20.2483562,20.1038573 C20.9182393,20.1038573 21.5371675,19.7420985 21.8718659,19.1551033 C22.2065644,18.5681082 22.2061504,17.8450482 21.87078,17.2584456 L13.614659,2.84444486 C13.2797928,2.26163402 12.6657996,1.90078534 11.9994353,1.89516504 Z M11.9994353,15.2676286 C12.5177069,15.2676286 12.937849,15.6926357 12.937849,16.2169084 C12.937849,16.7411812 12.5177069,17.1661883 11.9994353,17.1661883 C11.4811637,17.1661883 11.0610215,16.7411812 11.0610215,16.2169084 C11.0610215,15.6926357 11.4811637,15.2676286 11.9994353,15.2676286 Z M12.4810761,7.19744058 C12.7782706,7.37783775 12.9529714,7.70925607 12.935449,8.05941432 L12.935449,12.895643 C12.9328076,13.4166776 12.5145126,13.8376393 11.9994353,13.8376393 C11.4811637,13.8376393 11.0610215,13.4126323 11.0610215,12.8883595 L11.0610215,8.05941432 C11.0434992,7.70925607 11.2182,7.37783775 11.5153944,7.19744058 C11.8125889,7.01704341 12.1838817,7.01704341 12.4810761,7.19744058 Z" id="Combined-Shape" fill="#FD6464" fill-rule="nonzero"></path>
    </g>
</svg>
